<?xml version="1.0" encoding="UTF-8"?>
<svg width="22px" height="22px" viewBox="0 0 22 22" version="1.1" xmlns="http://www.w3.org/2000/svg" xmlns:xlink="http://www.w3.org/1999/xlink" style="background: #FFFFFF;">
    <!-- Generator: Sketch 50.2 (55047) - http://www.bohemiancoding.com/sketch -->
    <title>Icons/Alert-circle</title>
    <desc>Created with Sketch.</desc>
    <defs>
        <path d="M11,22 C4.92486775,22 0,17.0751322 0,11 C0,4.92486775 4.92486775,0 11,0 C17.0751322,0 22,4.92486775 22,11 C22,17.0751322 17.0751322,22 11,22 Z M11,20 C15.9705627,20 20,15.9705627 20,11 C20,6.02943725 15.9705627,2 11,2 C6.02943725,2 2,6.02943725 2,11 C2,15.9705627 6.02943725,20 11,20 Z M10,7 C10,6.44771525 10.4477153,6 11,6 C11.5522847,6 12,6.44771525 12,7 L12,11 C12,11.5522847 11.5522847,12 11,12 C10.4477153,12 10,11.5522847 10,11 L10,7 Z M10.2928932,14.7071068 C9.90236893,14.3165825 9.90236893,13.6834175 10.2928932,13.2928932 C10.6834175,12.9023689 11.3165825,12.9023689 11.7071068,13.2928932 C12.0976311,13.6834175 12.0976311,14.3165825 11.7071068,14.7071068 C11.3165825,15.0976311 10.6834175,15.0976311 10.2928932,14.7071068 Z" id="path-1"></path>
    </defs>
    <g id="Symbols" stroke="none" stroke-width="1" fill="none" fill-rule="evenodd">
        <g id="Alert-message" transform="translate(-16.000000, -7.000000)">
            <g>
                <path d="M17.5,0 L360,0 L360,35 L17.5,35 C7.83501688,35 1.18361906e-15,27.1649831 0,17.5 L0,17.5 C-1.18361906e-15,7.83501688 7.83501688,1.7754286e-15 17.5,0 Z" id="Rectangle-11" fill-opacity="0" fill="#E3601F"></path>
                <g id="Icons/Alert-circle" transform="translate(15.000000, 6.000000)">
                    <g id="alert-circle" transform="translate(1.000000, 1.000000)">
                        <mask id="mask-2" fill="white">
                            <use xlink:href="#path-1"></use>
                        </mask>
                        <use id="AlertCircle" fill="#FFFFFF" fill-rule="nonzero" xlink:href="#path-1"></use>
                        <g id="Colors/BG/White_Dashboard-Card-BG" mask="url(#mask-2)" fill="#FFFFFF">
                            <g transform="translate(-1.000000, -1.000000)" id="Rectangle-2">
                                <rect x="0" y="0" width="24" height="24"></rect>
                            </g>
                        </g>
                    </g>
                </g>
            </g>
        </g>
    </g>
</svg>