<?xml version="1.0" encoding="UTF-8"?>
<svg width="34px" height="34px" viewBox="0 0 34 34" version="1.1" xmlns="http://www.w3.org/2000/svg" xmlns:xlink="http://www.w3.org/1999/xlink">
    <!-- Generator: Sketch 50 (54983) - http://www.bohemiancoding.com/sketch -->
    <title>Icons/Copy</title>
    <desc>Created with Sketch.</desc>
    <defs>
        <path d="M15,13.5 C14.1715729,13.5 13.5,14.1715729 13.5,15 L13.5,28.5 C13.5,29.3284271 14.1715729,30 15,30 L28.5,30 C29.3284271,30 30,29.3284271 30,28.5 L30,15 C30,14.1715729 29.3284271,13.5 28.5,13.5 L15,13.5 Z M15,10.5 L28.5,10.5 C30.9852814,10.5 33,12.5147186 33,15 L33,28.5 C33,30.9852814 30.9852814,33 28.5,33 L15,33 C12.5147186,33 10.5,30.9852814 10.5,28.5 L10.5,15 C10.5,12.5147186 12.5147186,10.5 15,10.5 Z M6,19.5 C6.82842712,19.5 7.5,20.1715729 7.5,21 C7.5,21.8284271 6.82842712,22.5 6,22.5 L4.5,22.5 C2.01471863,22.5 0,20.4852814 0,18 L0,4.5 C-4.99600361e-16,2.01471863 2.01471863,0 4.5,0 L18,0 C20.4852814,0 22.5,2.01471863 22.5,4.5 L22.5,6 C22.5,6.82842712 21.8284271,7.5 21,7.5 C20.1715729,7.5 19.5,6.82842712 19.5,6 L19.5,4.5 C19.5,3.67157288 18.8284271,3 18,3 L4.5,3 C3.67157288,3 3,3.67157288 3,4.5 L3,18 C3,18.8284271 3.67157288,19.5 4.5,19.5 L6,19.5 Z" id="path-1"></path>
    </defs>
    <g id="--------------------" stroke="none" stroke-width="1" fill="none" fill-rule="evenodd">
        <g id="ORCHID---Icons" transform="translate(-297.000000, -644.000000)">
            <g id="Icons/Copy" transform="translate(297.000000, 644.000000)">
                <g transform="translate(0.500000, 0.500000)">
                    <mask id="mask-2" fill="white">
                        <use xlink:href="#path-1"></use>
                    </mask>
                    <use id="Combined-Shape" fill="#000000" fill-rule="nonzero" xlink:href="#path-1"></use>
                    <g id="Colors/BG/White_Dashboard-Card-BG" mask="url(#mask-2)" fill="#9E9E9E">
                        <g transform="translate(-1.500000, -1.500000)" id="Rectangle-2-Copy-6">
                            <rect x="0" y="0" width="36" height="36"></rect>
                        </g>
                    </g>
                </g>
            </g>
        </g>
    </g>
</svg>