<?xml version="1.0" encoding="UTF-8"?>
<svg width="20px" height="22px" viewBox="0 0 20 22" version="1.1" xmlns="http://www.w3.org/2000/svg" xmlns:xlink="http://www.w3.org/1999/xlink">
    <!-- Generator: Sketch 50.2 (55047) - http://www.bohemiancoding.com/sketch -->
    <title>Icons/Download</title>
    <desc>Created with Sketch.</desc>
    <defs>
        <path d="M9,12.5857864 L9,1 C9,0.44771525 9.44771525,0 10,0 C10.5522847,0 11,0.44771525 11,1 L11,12.5857864 L13.2928932,10.2928932 C13.6834175,9.90236893 14.3165825,9.90236893 14.7071068,10.2928932 C15.0976311,10.6834175 15.0976311,11.3165825 14.7071068,11.7071068 L10.7071068,15.7071068 C10.3165825,16.0976311 9.68341751,16.0976311 9.29289322,15.7071068 L5.29289322,11.7071068 C4.90236893,11.3165825 4.90236893,10.6834175 5.29289322,10.2928932 C5.68341751,9.90236893 6.31658249,9.90236893 6.70710678,10.2928932 L9,12.5857864 Z M0,16 C0,15.4477153 0.44771525,15 1,15 C1.55228475,15 2,15.4477153 2,16 L2,19 C2,19.5522847 2.44771525,20 3,20 L17,20 C17.5522847,20 18,19.5522847 18,19 L18,16 C18,15.4477153 18.4477153,15 19,15 C19.5522847,15 20,15.4477153 20,16 L20,19 C20,20.6568542 18.6568542,22 17,22 L3,22 C1.34314575,22 0,20.6568542 0,19 L0,16 Z" id="path-1"></path>
    </defs>
    <g id="02---Wallet" stroke="none" stroke-width="1" fill="none" fill-rule="evenodd">
        <g id="02h---Wallet---Backup-Config" transform="translate(-620.000000, -205.000000)">
            <g id="02i---Wallet----Backup-wallet-config-file" transform="translate(179.000000, 33.000000)">
                <g id="Cards/Backup-wallet" transform="translate(107.000000, 104.000000)">
                    <g id="Save-to-hard-drive">
                        <g transform="translate(332.000000, 30.000000)">
                            <g id="Icons/Download" transform="translate(0.000000, 37.000000)">
                                <g id="download" transform="translate(2.000000, 1.000000)">
                                    <mask id="mask-2" fill="white">
                                        <use xlink:href="#path-1"></use>
                                    </mask>
                                    <use id="Combined-Shape" fill="#000000" fill-rule="nonzero" xlink:href="#path-1"></use>
                                    <g id="Colors/Grey/90%" mask="url(#mask-2)" fill="#212121">
                                        <g transform="translate(-2.000000, -1.000000)" id="Rectangle-2-Copy-6">
                                            <rect x="0" y="0" width="24" height="24"></rect>
                                        </g>
                                    </g>
                                </g>
                            </g>
                        </g>
                    </g>
                </g>
            </g>
        </g>
    </g>
</svg>