<?xml version="1.0" encoding="UTF-8"?>
<svg width="22px" height="22px" viewBox="0 0 22 22" version="1.1" xmlns="http://www.w3.org/2000/svg" xmlns:xlink="http://www.w3.org/1999/xlink">
    <!-- Generator: Sketch 50.2 (55047) - http://www.bohemiancoding.com/sketch -->
    <title>Icons/Dropbox</title>
    <desc>Created with Sketch.</desc>
    <defs>
        <path d="M17.9005,13.6486 C17.8305,13.6786 17.7605,13.7186 17.7605,13.7386 L16.0305,14.7686 L13.3605,12.7386 L18.0305,9.8086 L20.6305,12.0186 L17.9005,13.6486 Z M17.4205,17.0286 L11.9305,20.6086 L6.4305,16.9786 L6.4305,15.7986 L7.5605,16.4686 C7.8605,16.6286 8.2205,16.5986 8.4705,16.3886 L11.9405,13.7186 L15.4705,16.4086 C15.7405,16.6086 16.1005,16.6286 16.3905,16.4586 L17.4205,15.8486 L17.4205,17.0286 Z M3.3105,12.0486 L6.0805,9.9786 L10.4905,12.7486 L7.9105,14.7686 L3.3105,12.0486 Z M3.2605,5.8386 L7.9105,2.8486 L10.5605,5.1286 L6.0705,7.9786 L3.2605,5.8386 Z M16.5105,8.8286 L11.9105,11.7086 L7.5705,8.9786 L11.9405,6.1986 L16.5105,8.8286 Z M16.1105,2.8386 L20.6205,5.6886 L18.0305,7.8086 L13.3605,5.1086 L16.1105,2.8386 Z M19.3905,8.8286 L22.5405,6.2486 C22.7505,6.0786 22.8605,5.8286 22.8405,5.5586 C22.8305,5.2986 22.6805,5.0586 22.4605,4.9186 L16.5005,1.1286 C16.3305,1.0286 16.1305,0.9786 15.9405,1.0086 C15.7905,1.0286 15.6505,1.0886 15.5205,1.1886 L11.9405,4.1686 L8.5105,1.2086 C8.3405,1.0586 8.1205,0.9886 7.8905,1.0086 C7.7605,1.0186 7.6405,1.0586 7.5305,1.1286 L1.3805,5.0886 C1.1605,5.2386 1.0205,5.4786 1.0105,5.7486 C1.0005,6.0086 1.1205,6.2586 1.3305,6.4286 L4.6705,8.9586 L1.3405,11.4686 C1.1105,11.6286 0.9905,11.8986 1.0005,12.1786 C1.0205,12.4586 1.1705,12.7086 1.4105,12.8486 L4.7905,14.8286 L4.7905,17.4286 C4.7905,17.6986 4.9205,17.9586 5.1605,18.1186 L11.4605,22.2886 C11.6005,22.3786 11.7705,22.4286 11.9305,22.4286 C12.0905,22.4286 12.2405,22.3786 12.3805,22.2886 L18.7005,18.1586 C18.9305,17.9986 19.0605,17.7386 19.0605,17.4686 L19.0605,14.8586 L22.4405,12.8286 C22.6605,12.6986 22.8105,12.4586 22.8305,12.2086 C22.8605,11.9486 22.7605,11.6886 22.5605,11.5086 L19.3905,8.8286 Z" id="path-1"></path>
    </defs>
    <g id="02---Wallet" stroke="none" stroke-width="1" fill="none" fill-rule="evenodd">
        <g id="02h---Wallet---Backup-Config" transform="translate(-619.000000, -354.000000)">
            <g id="02i---Wallet----Backup-wallet-config-file" transform="translate(179.000000, 33.000000)">
                <g id="Cards/Backup-wallet" transform="translate(107.000000, 104.000000)">
                    <g id="Save-backup-copy-to">
                        <g transform="translate(332.000000, 133.000000)">
                            <g id="Icons/Dropbox" transform="translate(0.000000, 83.000000)">
                                <mask id="mask-2" fill="white">
                                    <use xlink:href="#path-1"></use>
                                </mask>
                                <use id="Dropbox" fill="#000000" fill-rule="evenodd" xlink:href="#path-1"></use>
                                <g id="Colors/Grey/90%" mask="url(#mask-2)" fill="#212121" fill-rule="evenodd">
                                    <rect id="Rectangle-2-Copy-6" x="0" y="0" width="24" height="24"></rect>
                                </g>
                            </g>
                        </g>
                    </g>
                </g>
            </g>
        </g>
    </g>
</svg>