<?xml version="1.0" encoding="UTF-8"?>
<svg width="24px" height="21px" viewBox="0 0 24 21" version="1.1" xmlns="http://www.w3.org/2000/svg" xmlns:xlink="http://www.w3.org/1999/xlink">
    <!-- Generator: Sketch 50.2 (55047) - http://www.bohemiancoding.com/sketch -->
    <title>Icons/Google Drive</title>
    <desc>Created with Sketch.</desc>
    <defs>
        <path d="M16.2197272,1.51503906 L23.576806,14.3466552 L19.4129835,21.5630859 L4.62224441,21.5630859 L0.422141358,14.2726022 L7.85569123,1.51503906 L16.2197272,1.51503906 Z M15.6403744,2.51503906 L8.43038689,2.51503906 L1.57785864,14.2754447 L5.20021652,20.5630859 L18.835454,20.5630859 L22.423194,14.3450791 L15.6403744,2.51503906 Z M15.2306228,3.22239063 L9.81813525,3.22239063 L15.6741871,13.4586386 L21.1144397,13.4845789 L15.2306228,3.22239063 Z M22.8452322,14.492843 L15.0926176,14.455877 L8.09396632,2.22239063 L15.8099788,2.22239063 L22.8452322,14.492843 Z M12.001704,10.4773588 C11.9269193,10.6075566 11.8464278,10.7476191 11.7601705,10.8976511 C11.3666138,11.5820636 10.8670372,12.4496201 10.2868694,13.4562695 L13.7058672,13.4562695 L12.001704,10.4773588 Z M8.55612449,14.4562695 L8.98836389,13.7065376 C9.75413177,12.3782907 10.4052979,11.2477748 10.8932556,10.3991948 C11.1825164,9.89606784 11.4068111,9.50527392 11.5682257,9.2230964 L12.0022177,8.46441155 L15.4300156,14.4562695 L8.55612449,14.4562695 Z M2.395341,14.2775031 L5.11644775,19.0006268 C6.54640663,16.5215282 10.2363876,10.1187023 11.0182479,8.75833794 L8.33951903,4.07598831 L2.395341,14.2775031 Z M8.34745753,2.07605857 L12.1699058,8.75760058 L12.0293533,9.00535628 C11.8298684,9.35699375 6.47434327,18.6495024 5.54909044,20.2516769 L5.11558971,21.0023299 L1.23961994,14.2746687 L8.34745753,2.07605857 Z M21.1167163,15.1938584 L9.30198959,15.1643012 C8.40322418,16.7225177 7.41988038,18.4262442 6.59445131,19.8557344 L18.4269451,19.8557344 L21.1167163,15.1938584 Z M4.86215139,20.8557344 L5.29534837,20.1056705 C6.23443976,18.4796701 7.48203328,16.3183023 8.58045974,14.4137748 L8.72517643,14.162855 L22.8457056,14.1981807 L19.0044846,20.8557344 L4.86215139,20.8557344 Z" id="path-1"></path>
    </defs>
    <g id="02---Wallet" stroke="none" stroke-width="1" fill="none" fill-rule="evenodd">
        <g id="02h---Wallet---Backup-Config" transform="translate(-618.000000, -308.000000)">
            <g id="02i---Wallet----Backup-wallet-config-file" transform="translate(179.000000, 33.000000)">
                <g id="Cards/Backup-wallet" transform="translate(107.000000, 104.000000)">
                    <g id="Save-backup-copy-to">
                        <g transform="translate(332.000000, 133.000000)">
                            <g id="Icons/Google-Drive" transform="translate(0.000000, 37.000000)">
                                <mask id="mask-2" fill="white">
                                    <use xlink:href="#path-1"></use>
                                </mask>
                                <use id="GoogleDrive" fill="#000000" fill-rule="nonzero" xlink:href="#path-1"></use>
                                <g id="Colors/Grey/90%" mask="url(#mask-2)" fill="#212121" fill-rule="evenodd">
                                    <rect id="Rectangle-2-Copy-6" x="0" y="0" width="24" height="24"></rect>
                                </g>
                            </g>
                        </g>
                    </g>
                </g>
            </g>
        </g>
    </g>
</svg>