<svg xmlns="http://www.w3.org/2000/svg" xmlns:xlink="http://www.w3.org/1999/xlink" width="69" height="69" viewBox="0 0 69 69">
    <defs>
        <path id="a" d="M30.437 22.348c-5.662 7.141-15.346 7.871-15.77 7.9a1.248 1.248 0 0 1-1.329-1.163 1.25 1.25 0 0 1 1.16-1.332c.091-.006 8.577-.664 13.614-6.515l-1.158-.553a.999.999 0 0 1-.135-1.726l4.336-2.979a1.001 1.001 0 0 1 1.564.746l.411 5.245a1 1 0 0 1-1.427.981l-1.266-.604zM21.09 34.501c2.97 1.672 4.884 3.718 5.68 6.104 2.197 6.596-3.024 12.713-3.288 13.021a1.248 1.248 0 0 1-1.76.136A1.25 1.25 0 0 1 21.582 52c.055-.064 4.564-5.355 2.814-10.605-.666-1.995-2.465-3.489-4.198-4.52l-.467 1.245a1 1 0 0 1-1.709.283l-3.34-4.066a1 1 0 0 1 .608-1.62l5.19-.862a1.001 1.001 0 0 1 1.101 1.338l-.492 1.308zm19.246 5.436c.802-16.057 9.617-18.082 9.992-18.16a1.246 1.246 0 0 1 1.478.967 1.25 1.25 0 0 1-.956 1.477c-.317.073-7.32 1.866-8.019 15.841-.573 11.472-5.889 15.572-10.656 16.921l.046 1.401a1 1 0 0 1-1.471.914l-4.64-2.48a1 1 0 0 1-.055-1.732l4.468-2.778a1 1 0 0 1 1.527.818l.04 1.252c5.011-1.736 7.857-6.683 8.245-14.44zm22.631-1.216c-2.659.326-4.727 2.566-4.727 5.314 0 1.606.718 3.032 1.834 4.017-4.642 8.964-14 15.107-24.772 15.107-4.68 0-9.092-1.164-12.969-3.21a5.379 5.379 0 0 0-5.38-5.376c-.53 0-1.034.1-1.519.244-4.954-5.036-8.018-11.938-8.018-19.544v-.022a5.37 5.37 0 0 0 3.426-5.001c0-1.635-.745-3.082-1.896-4.07a27.841 27.841 0 0 1 4.1-7.685 5.35 5.35 0 0 0 2.176.468 5.379 5.379 0 0 0 5.38-5.38c0-.628-.128-1.222-.326-1.783a27.736 27.736 0 0 1 8.434-3.62 5.368 5.368 0 0 0 4.878 3.142c2.39 0 4.391-1.568 5.093-3.723a27.794 27.794 0 0 1 15.491 7.165 5.352 5.352 0 0 0-.88 2.938 5.38 5.38 0 0 0 5.38 5.379c.55 0 1.07-.106 1.57-.26a27.715 27.715 0 0 1 2.946 12.452 28.02 28.02 0 0 1-.22 3.448m4.22-3.448c0-5.443-1.373-10.57-3.788-15.057.402-.753.651-1.6.651-2.514a5.38 5.38 0 0 0-5.38-5.38c-.39 0-.769.046-1.137.126-5.057-4.93-11.738-8.197-19.158-8.91C37.491 1.78 35.69.563 33.588.563c-2.326 0-4.288 1.484-5.039 3.55a31.687 31.687 0 0 0-10.96 4.662 5.322 5.322 0 0 0-2.367-.571 5.38 5.38 0 0 0-5.38 5.38c0 .712.146 1.389.398 2.012a31.832 31.832 0 0 0-5.083 9.306c-2.826.16-5.074 2.482-5.074 5.348a5.379 5.379 0 0 0 3.334 4.972c0 8.597 3.384 16.36 8.875 22.092a5.32 5.32 0 0 0-.718 2.637 5.38 5.38 0 0 0 5.38 5.38 5.35 5.35 0 0 0 3.874-1.661 31.662 31.662 0 0 0 14.474 3.489c12.516 0 23.365-7.251 28.581-17.771C66.73 49.248 69 46.916 69 44.035c0-1.747-.845-3.283-2.136-4.265.21-1.471.324-2.97.324-4.497z"/>
    </defs>
    <g fill="none" fill-rule="evenodd">
        <mask id="b" fill="#fff">
            <use xlink:href="#a"/>
        </mask>
        <use fill="#666" xlink:href="#a"/>
        <g fill="#9E9E9E" mask="url(#b)">
            <path d="M0 0h69v69H0z"/>
        </g>
    </g>
</svg>
