<?xml version="1.0" encoding="UTF-8"?>
<svg width="30px" height="34px" viewBox="0 0 30 34" version="1.1" xmlns="http://www.w3.org/2000/svg" xmlns:xlink="http://www.w3.org/1999/xlink">
    <!-- Generator: Sketch 50 (54983) - http://www.bohemiancoding.com/sketch -->
    <title>Icons/Lock</title>
    <desc>Created with Sketch.</desc>
    <defs>
        <path d="M6,13.5 L6,9 C6,4.02943725 10.0294373,8.32667268e-16 15,0 C19.9705627,-1.66533454e-15 24,4.02943725 24,9 L24,13.5 L25.5,13.5 C27.9852814,13.5 30,15.5147186 30,18 L30,28.5 C30,30.9852814 27.9852814,33 25.5,33 L4.5,33 C2.01471863,33 3.33066907e-16,30.9852814 0,28.5 L0,18 C-3.33066907e-16,15.5147186 2.01471863,13.5 4.5,13.5 L6,13.5 Z M9,13.5 L21,13.5 L21,9 C21,5.6862915 18.3137085,3 15,3 C11.6862915,3 9,5.6862915 9,9 L9,13.5 Z M4.5,16.5 C3.67157288,16.5 3,17.1715729 3,18 L3,28.5 C3,29.3284271 3.67157288,30 4.5,30 L25.5,30 C26.3284271,30 27,29.3284271 27,28.5 L27,18 C27,17.1715729 26.3284271,16.5 25.5,16.5 L4.5,16.5 Z" id="path-1"></path>
    </defs>
    <g id="--------------------" stroke="none" stroke-width="1" fill="none" fill-rule="evenodd">
        <g id="ORCHID---Icons" transform="translate(-299.000000, -760.000000)">
            <g id="Icons/Lock" transform="translate(299.000000, 760.000000)">
                <g transform="translate(0.000000, 0.500000)">
                    <mask id="mask-2" fill="white">
                        <use xlink:href="#path-1"></use>
                    </mask>
                    <use id="Combined-Shape" fill="#9E9E9E" xlink:href="#path-1"></use>
                    <g id="Colors/BG/White_Dashboard-Card-BG" mask="url(#mask-2)" fill="#9E9E9E">
                        <g transform="translate(-3.000000, -1.500000)" id="Rectangle-2-Copy-6">
                            <rect x="0" y="0" width="36" height="36"></rect>
                        </g>
                    </g>
                </g>
            </g>
        </g>
    </g>
</svg>