<?xml version="1.0" encoding="UTF-8"?>
<svg width="18px" height="18px" viewBox="0 0 18 18" version="1.1" xmlns="http://www.w3.org/2000/svg" xmlns:xlink="http://www.w3.org/1999/xlink">
    <!-- Generator: Sketch 50.2 (55047) - http://www.bohemiancoding.com/sketch -->
    <title>Icons/Send</title>
    <desc>Created with Sketch.</desc>
    <defs>
        <path d="M9.91666667,8.08333333 L16.3333333,8.08333333 C16.8395944,8.08333333 17.25,8.49373898 17.25,9 C17.25,9.50626102 16.8395944,9.91666667 16.3333333,9.91666667 L9.91666667,9.91666667 L9.91666667,16.3333333 C9.91666667,16.8395944 9.50626102,17.25 9,17.25 C8.49373898,17.25 8.08333333,16.8395944 8.08333333,16.3333333 L8.08333333,9.91666667 L1.66666667,9.91666667 C1.16040565,9.91666667 0.75,9.50626102 0.75,9 C0.75,8.49373898 1.16040565,8.08333333 1.66666667,8.08333333 L8.08333333,8.08333333 L8.08333333,1.66666667 C8.08333333,1.16040565 8.49373898,0.75 9,0.75 C9.50626102,0.75 9.91666667,1.16040565 9.91666667,1.66666667 L9.91666667,8.08333333 Z" id="path-1"></path>
    </defs>
    <g id="Symbols" stroke="none" stroke-width="1" fill="none" fill-rule="evenodd">
        <g id="Button/Outline/Success" transform="translate(-15.000000, -14.000000)">
            <g id="Icons/Plus-+" transform="translate(15.000000, 14.000000)">
                <mask id="mask-2" fill="white">
                    <use xlink:href="#path-1"></use>
                </mask>
                <use id="Mask" fill="#D8D8D8" fill-rule="evenodd" xlink:href="#path-1"></use>
                <g id="Colors/Status/Green_Confirmation_&amp;_Process" mask="url(#mask-2)" fill="#5CB85C" fill-rule="evenodd">
                    <g transform="translate(9.000000, 9.000000) rotate(-630.000000) translate(-9.000000, -9.000000) translate(-0.000000, -0.000000)" id="Rectangle-2-Copy-4">
                        <rect x="0" y="0" width="18" height="18"></rect>
                    </g>
                </g>
            </g>
        </g>
    </g>
</svg>