<?xml version="1.0" encoding="UTF-8"?>
<svg width="22px" height="22px" viewBox="0 0 22 22" version="1.1" xmlns="http://www.w3.org/2000/svg" xmlns:xlink="http://www.w3.org/1999/xlink">
    <!-- Generator: Sketch 50 (54983) - http://www.bohemiancoding.com/sketch -->
    <title>Icons/QR code</title>
    <desc>Created with Sketch.</desc>
    <defs>
        <path d="M5.8125,0 L1.9375,0 C0.86703125,0 0,0.86703125 0,1.9375 L0,5.8125 C0,6.88296875 0.86703125,7.75 1.9375,7.75 L5.8125,7.75 C6.88296875,7.75 7.75,6.88296875 7.75,5.8125 L7.75,1.9375 C7.75,0.86703125 6.88296875,0 5.8125,0 Z M5.8125,5.8125 L1.9375,5.8125 L1.9375,1.9375 L5.8125,1.9375 L5.8125,5.8125 Z M18,16 L18,14.25 L20,14.25 L20,16 L22,16 L22,18 L20,18 L20,16.25 L18,16.25 L18,18 L16.25,18 L16.25,20 L18,20 L18,22 L16,22 L16,20 L14.25,20 L14.25,18 L16,18 L16,16.25 L14.25,16.25 L14.25,14.25 L16.25,14.25 L16.25,16 L18,16 Z M12,16 L14,16 L14,18 L12,18 L12,16.25 L10,16.25 L10,14.25 L12,14.25 L12,16 Z M16.25,12 L18,12 L18,14 L16,14 L16,12 L14.25,12 L14.25,10 L16.25,10 L16.25,12 Z M4.84375,4.84375 L2.90625,4.84375 L2.90625,2.90625 L4.84375,2.90625 L4.84375,4.84375 Z M5.8125,14.25 C6.88296875,14.25 7.75,15.1170313 7.75,16.1875 L7.75,20.0625 C7.75,21.1329687 6.88296875,22 5.8125,22 L1.9375,22 C0.86703125,22 0,21.1329687 0,20.0625 L0,16.1875 C0,15.1170313 0.86703125,14.25 1.9375,14.25 L5.8125,14.25 Z M20.0625,0 C21.1329687,0 22,0.86703125 22,1.9375 L22,5.8125 C22,6.88296875 21.1329687,7.75 20.0625,7.75 L16.1875,7.75 C15.1170312,7.75 14.25,6.88296875 14.25,5.8125 L14.25,1.9375 C14.25,0.86703125 15.1170312,0 16.1875,0 L20.0625,0 Z M10,2 L12,2 L12,4 L10,4 L10,2 Z M10,6 L12,6 L12,8 L10,8 L10,6 Z M10,10 L12,10 L12,12 L10,12 L10,10 Z M6,10 L8,10 L8,12 L6,12 L6,10 Z M2,10 L4,10 L4,12 L2,12 L2,10 Z M18,10 L20,10 L20,12 L18,12 L18,10 Z M12,12 L14,12 L14,14 L12,14 L12,12 Z M12,20 L14,20 L14,22 L12,22 L12,20 Z M20,12 L22,12 L22,14 L20,14 L20,12 Z M18,18 L20,18 L20,20 L18,20 L18,18 Z M10,18 L12,18 L12,20 L10,20 L10,18 Z" id="path-1"></path>
    </defs>
    <g id="Symbols" stroke="none" stroke-width="1" fill="none" fill-rule="evenodd">
        <g id="Icons/QR-code" transform="translate(-1.000000, -1.000000)">
            <g transform="translate(1.000000, 1.000000)">
                <mask id="mask-2" fill="white">
                    <use xlink:href="#path-1"></use>
                </mask>
                <use id="Mask" fill="#000000" fill-rule="nonzero" xlink:href="#path-1"></use>
                <g id="Colors/Grey/50%" mask="url(#mask-2)" fill="#9E9E9E">
                    <g transform="translate(-1.000000, -1.000000)" id="Rectangle-2-Copy-5">
                        <rect x="0" y="0" width="24" height="24"></rect>
                    </g>
                </g>
            </g>
        </g>
    </g>
</svg>