<?xml version="1.0" encoding="UTF-8"?>
<svg width="28px" height="28px" viewBox="0 0 28 28" version="1.1" xmlns="http://www.w3.org/2000/svg" xmlns:xlink="http://www.w3.org/1999/xlink">
    <!-- Generator: Sketch 50.2 (55047) - http://www.bohemiancoding.com/sketch -->
    <title>Icons/?</title>
    <desc>Created with Sketch.</desc>
    <defs>
        <path d="M25.7713402,7.30528431 C24.5641915,5.23705782 22.9266118,3.59947811 20.8583853,2.39232943 C18.7897273,1.18518075 16.5314207,0.581714286 14.0819553,0.581714286 C11.6327057,0.581714286 9.37375184,1.18518075 7.30552534,2.39232943 C5.23708309,3.59926235 3.59950338,5.23684206 2.39235471,7.30528431 C1.18499027,9.37372656 0.58152381,11.6326804 0.58152381,14.0817143 C0.58152381,16.5309639 1.18520603,18.7894863 2.39213895,20.8581443 C3.59928763,22.926155 5.23686734,24.5639505 7.30530959,25.7710991 C9.37375184,26.9782478 11.6324899,27.5817143 14.0817396,27.5817143 C16.5309892,27.5817143 18.789943,26.9782478 20.8581695,25.7710991 C22.926396,24.5641662 24.5639757,22.9263708 25.7711244,20.8581443 C26.9780573,18.789702 27.5815238,16.5307482 27.5815238,14.0817143 C27.5815238,11.6324646 26.9780573,9.3735108 25.7713402,7.30528431 L25.7713402,7.30528431 Z M16.3320632,22.5192413 C16.3320632,22.683215 16.2789875,22.8180618 16.1736991,22.9233502 C16.0686265,23.0286386 15.9337796,23.0812828 15.7698059,23.0812828 L12.3945362,23.0812828 C12.2305625,23.0812828 12.0957157,23.0286386 11.9902115,22.9233502 C11.8847074,22.8180618 11.8320632,22.683215 11.8320632,22.5192413 L11.8320632,19.1439716 C11.8320632,18.9799978 11.8847074,18.845151 11.9902115,18.7396469 C12.0957157,18.6345742 12.2305625,18.58193 12.3945362,18.58193 L15.7698059,18.58193 C15.9337796,18.58193 16.0686265,18.6345742 16.1736991,18.7396469 C16.2789875,18.845151 16.3320632,18.9799978 16.3320632,19.1439716 L16.3320632,22.5192413 L16.3320632,22.5192413 Z M20.612209,12.1304269 C20.4657114,12.5640943 20.3017376,12.9187954 20.120072,13.1940986 C19.9384064,13.4694019 19.6775587,13.7507463 19.337529,14.0377003 C18.9981465,14.3248701 18.7284529,14.530053 18.5288796,14.653249 C18.3299536,14.7760136 18.0425681,14.9432236 17.6678018,15.1540162 C17.281169,15.3766752 16.9620675,15.6666498 16.7102815,16.0241557 C16.4582798,16.3814458 16.332279,16.6716361 16.332279,16.8940794 C16.332279,17.0582689 16.2792032,17.1931157 16.1739149,17.2984041 C16.0688422,17.4039083 15.9339954,17.4565525 15.7700217,17.4565525 L12.394752,17.4565525 C12.2307783,17.4565525 12.0959314,17.4039083 11.9904273,17.2984041 C11.8849231,17.1931157 11.832279,17.0582689 11.832279,16.8940794 L11.832279,16.2610546 C11.832279,15.4759225 12.1397297,14.740414 12.7550627,14.0549607 C13.3703957,13.3692916 14.0472188,12.8624833 14.7855321,12.5343201 C15.3477893,12.2767088 15.7462886,12.0128405 15.9805985,11.7433627 C16.2153398,11.4738848 16.3324947,11.1161632 16.3324947,10.6710608 C16.3324947,10.2842122 16.1124247,9.93857289 15.672932,9.63371122 C15.2334392,9.32906529 14.7328879,9.17674233 14.1701991,9.17674233 C13.5606915,9.17674233 13.0569038,9.31741453 12.6584045,9.59875892 C12.2715559,9.87988756 11.7677682,10.4190591 11.1466099,11.2158419 C11.0411057,11.3565141 10.8946081,11.427066 10.7071171,11.427066 C10.5664449,11.427066 10.4551154,11.3918979 10.3731285,11.3217776 L8.05290033,9.56402238 C7.78342245,9.35301409 7.73660364,9.1070535 7.91222813,8.82570911 C9.41237197,6.32964064 11.5861026,5.08149853 14.4336358,5.08149853 C15.4535092,5.08149853 16.4496496,5.32184949 17.4222727,5.80233566 C18.3948958,6.28260607 19.20635,6.96244977 19.8570668,7.84143524 C20.5069206,8.72020496 20.8324947,9.67535191 20.8324947,10.7066603 C20.8318474,11.2223146 20.758275,11.6967596 20.612209,12.1304269 L20.612209,12.1304269 Z" id="path-1"></path>
    </defs>
    <g id="--------------------" stroke="none" stroke-width="1" fill="none" fill-rule="evenodd">
        <g id="ORCHID---Icons" transform="translate(-81.000000, -879.000000)">
            <g id="Icons/?" transform="translate(81.000000, 879.000000)">
                <mask id="mask-2" fill="white">
                    <use xlink:href="#path-1"></use>
                </mask>
                <use id="Mask" fill="#FFFFFF" xlink:href="#path-1"></use>
                <g id="Colors/BG/White_Dashboard-Card-BG" mask="url(#mask-2)" fill="#9E9E9E">
                    <g transform="translate(-4.000000, -4.000000)" id="Rectangle-2-Copy-6">
                        <rect x="0" y="0" width="36" height="36"></rect>
                    </g>
                </g>
            </g>
        </g>
    </g>
</svg>