<?xml version="1.0" encoding="UTF-8"?>
<svg width="19px" height="19px" viewBox="0 0 19 19" version="1.1" xmlns="http://www.w3.org/2000/svg" xmlns:xlink="http://www.w3.org/1999/xlink">
    <!-- Generator: Sketch 49.3 (51167) - http://www.bohemiancoding.com/sketch -->
    <title>Icons/Search</title>
    <desc>Created with Sketch.</desc>
    <defs>
        <path d="M17.440259,15.5523865 L13.7694897,11.8700189 C14.6541786,10.5889318 15.0967201,9.16091899 15.0967201,7.58637574 C15.0967201,6.56290287 14.8986338,5.58410069 14.5025927,4.65010098 C14.1066829,3.7159695 13.5715348,2.91084277 12.8972797,2.23445726 C12.2230246,1.55807175 11.4205652,1.02123275 10.4895073,0.624072041 C9.55818667,0.226779557 8.58246742,0.0281992012 7.56221819,0.0281992012 C6.54196895,0.0281992012 5.56624971,0.226779557 4.63519182,0.624072041 C3.70400258,1.02123275 2.90141176,1.55807175 2.22715667,2.23445726 C1.55290157,2.91084277 1.01775346,3.71610127 0.621843684,4.65010098 C0.225802554,5.58423246 0.0278476682,6.56290287 0.0278476682,7.58637574 C0.0278476682,8.60984862 0.225802554,9.58838725 0.621843684,10.5226505 C1.01775346,11.4566502 1.55290157,12.2616452 2.22715667,12.9380307 C2.90141176,13.614548 3.70413393,14.1512552 4.63519182,14.5485477 C5.56638106,14.9458402 6.54196895,15.1444205 7.56221819,15.1444205 C9.1320648,15.1444205 10.5554484,14.7004808 11.8325005,13.8129966 L15.5032697,17.4845589 C15.7600725,17.7565362 16.0808461,17.8925249 16.4663787,17.8925249 C16.8373307,17.8925249 17.1586297,17.7565362 17.4294877,17.4845589 C17.7006084,17.2127133 17.8361687,16.8905309 17.8361687,16.5184068 C17.8363001,16.1392989 17.7044177,15.8171164 17.440259,15.5523865 L17.440259,15.5523865 Z M10.9495192,10.9841159 C10.0112367,11.9253631 8.88222393,12.3959208 7.56221819,12.3959208 C6.2423438,12.3959208 5.11333103,11.9252313 4.17504851,10.9841159 C3.23676599,10.0428688 2.76769041,8.91042048 2.76769041,7.58624397 C2.76769041,6.26219924 3.23689735,5.1294874 4.17504851,4.188372 C5.11319967,3.24712484 6.2423438,2.77656714 7.56221819,2.77656714 C8.88209257,2.77656714 10.0111053,3.24725661 10.9495192,4.188372 C11.8878017,5.1294874 12.3570087,6.26219924 12.3570087,7.58624397 C12.3570087,8.91042048 11.8876704,10.0428688 10.9495192,10.9841159 L10.9495192,10.9841159 Z" id="path-1"></path>
    </defs>
    <g id="Symbols" stroke="none" stroke-width="1" fill="none" fill-rule="evenodd">
        <g id="Cards/Location/Drop-menu" transform="translate(-19.000000, -19.000000)">
            <g id="locartion-popup-card">
                <g id="Search-bar" transform="translate(9.733865, 10.702840)">
                    <g id="Icons/Search" transform="translate(10.000000, 9.000000)">
                        <mask id="mask-2" fill="white">
                            <use xlink:href="#path-1"></use>
                        </mask>
                        <use id="Mask" fill="#FFFFFF" xlink:href="#path-1"></use>
                        <g id="Colors/Grey/50%" mask="url(#mask-2)" fill="#9E9E9E">
                            <g transform="translate(0.000000, -0.131772)" id="Rectangle-2-Copy-5">
                                <rect x="0" y="0" width="18" height="18"></rect>
                            </g>
                        </g>
                    </g>
                </g>
            </g>
        </g>
    </g>
</svg>