<?xml version="1.0" encoding="UTF-8"?>
<svg width="18px" height="18px" viewBox="0 0 18 18" version="1.1" xmlns="http://www.w3.org/2000/svg" xmlns:xlink="http://www.w3.org/1999/xlink">
    <!-- Generator: Sketch 50.2 (55047) - http://www.bohemiancoding.com/sketch -->
    <title>Icons/Send</title>
    <desc>Created with Sketch.</desc>
    <defs>
        <path d="M15.4654629,0.227647631 L0.842125707,8.66171523 C-0.367111793,9.3613315 -0.251109359,11.1508023 1.04249355,11.6816669 L5.06039606,13.3445739 L5.06039606,16.3117907 C5.06039606,17.9430568 7.14140943,18.6145478 8.10458116,17.3172694 L9.64424984,15.2395145 L13.5777869,16.8637493 C13.7851852,16.9481251 14.0031292,16.990313 14.2210732,16.990313 C14.5093216,16.990313 14.7940549,16.9164842 15.0506663,16.7723421 C15.5006152,16.5192146 15.809955,16.0692102 15.8908052,15.5594395 L17.978849,1.94680522 C18.1932777,0.537025684 16.6817309,-0.471968647 15.4654629,0.227647631 Z M6.7477042,16.3117907 L6.7477042,14.0406746 L8.03427665,14.5715392 L6.7477042,16.3117907 Z M14.2210732,15.3027964 L8.81465667,13.0703525 L13.7430025,5.95817292 C14.1191316,5.41324567 13.4090561,4.78042693 12.9098941,5.21285307 L5.47519264,11.6922139 L1.68577978,10.1242297 L16.309117,1.6866464 L14.2210732,15.3027964 Z" id="path-1"></path>
    </defs>
    <g id="Symbols" stroke="none" stroke-width="1" fill="none" fill-rule="evenodd">
        <g id="Button/lg/Secondary/G_B/Normal" transform="translate(-15.000000, -14.000000)">
            <g id="Icons/Send" transform="translate(15.000000, 14.000000)">
                <mask id="mask-2" fill="white">
                    <use xlink:href="#path-1"></use>
                </mask>
                <use id="paper-plane" fill="#000000" fill-rule="nonzero" xlink:href="#path-1"></use>
                <g id="Colors/BG/White_Dashboard-Card-BG" mask="url(#mask-2)" fill="#FFFFFF" fill-rule="evenodd">
                    <rect id="Rectangle-2" x="0" y="0" width="18" height="18"></rect>
                </g>
            </g>
        </g>
    </g>
</svg>