<?xml version="1.0" encoding="UTF-8"?>
<svg width="22px" height="22px" viewBox="0 0 22 22" version="1.1" xmlns="http://www.w3.org/2000/svg" xmlns:xlink="http://www.w3.org/1999/xlink">
    <!-- Generator: Sketch 50.2 (55047) - http://www.bohemiancoding.com/sketch -->
    <title>Icons/Send</title>
    <desc>Created with Sketch.</desc>
    <defs>
        <path d="M18.9022325,0.278235993 L1.02926475,10.5865408 C-0.448692192,11.4416274 -0.306911438,13.6287583 1.27415878,14.2775929 L6.18492851,16.3100348 L6.18492851,19.9366331 C6.18492851,21.9304028 8.7283893,22.751114 9.90559919,21.1655515 L11.7874165,18.6260733 L16.5950729,20.6112491 C16.8485597,20.7143751 17.1149357,20.7659381 17.3813116,20.7659381 C17.7336153,20.7659381 18.0816226,20.6757029 18.3952589,20.4995293 C18.9451963,20.1901512 19.3232783,19.6401458 19.4220952,19.0170928 L21.9741488,2.3794286 C22.2362284,0.656364725 20.3887822,-0.576850569 18.9022325,0.278235993 Z M8.24719402,19.9366331 L8.24719402,17.1608245 L9.81967146,17.809659 L8.24719402,19.9366331 Z M17.3813116,18.7034178 L10.7734693,15.9748752 L16.7970031,7.28221135 C17.2567164,6.61618916 16.3888464,5.84274402 15.7787595,6.37126486 L6.69190212,14.2904836 L2.0603975,12.3740585 L19.9333652,2.06145671 L17.3813116,18.7034178 Z" id="path-1"></path>
    </defs>
    <g id="Symbols" stroke="none" stroke-width="1" fill="none" fill-rule="evenodd">
        <g id="Icons/Send" transform="translate(-1.000000, -1.000000)">
            <g transform="translate(1.000000, 1.000000)">
                <mask id="mask-2" fill="white">
                    <use xlink:href="#path-1"></use>
                </mask>
                <use id="paper-plane" fill="#000000" fill-rule="nonzero" xlink:href="#path-1"></use>
                <g id="Colors/BG/White_Dashboard-Card-BG" mask="url(#mask-2)" fill="#FFFFFF">
                    <g transform="translate(-1.000000, -1.000000)" id="Rectangle-2">
                        <rect x="0" y="0" width="24" height="24"></rect>
                    </g>
                </g>
            </g>
        </g>
    </g>
</svg>