<?xml version="1.0" encoding="UTF-8"?>
<svg width="19px" height="22px" viewBox="0 0 19 22" version="1.1" xmlns="http://www.w3.org/2000/svg" xmlns:xlink="http://www.w3.org/1999/xlink">
    <!-- Generator: Sketch 50 (54983) - http://www.bohemiancoding.com/sketch -->
    <title> </title>
    <desc>Created with Sketch.</desc>
    <defs>
        <path d="M7.80598958,13.234375 C7.79803241,13.2589286 7.74830006,13.2568824 7.65679253,13.2282366 C7.56528501,13.1995908 7.43995949,13.1525298 7.28081597,13.0870536 L7.04210069,12.9765625 C6.69198495,12.812872 6.3458478,12.6123512 6.00368924,12.375 C5.947989,12.3340774 5.7848669,12.2051711 5.51432292,11.9882813 C5.24377894,11.7713914 5.09259259,11.6547619 5.06076389,11.6383929 C4.5276331,12.4813988 3.99450231,13.2220982 3.46137153,13.8604911 C2.81684028,14.6380208 2.39908854,15.0881696 2.20811632,15.2109375 C2.17628762,15.2273065 2.09870515,15.2436756 1.97536892,15.2600446 C1.8520327,15.2764137 1.77842882,15.2764137 1.75455729,15.2600446 C1.80230035,15.2273065 2.12854456,14.8508185 2.73328993,14.1305804 C2.90039062,13.9341518 3.2405599,13.4635417 3.75379774,12.71875 C4.26703559,11.9739583 4.57935475,11.4910714 4.69075521,11.2700893 C4.8260272,11.0245536 5.02893519,10.6214658 5.29947917,10.0608259 C5.57002315,9.50018601 5.71325231,9.18303571 5.72916667,9.109375 C5.66550926,9.10119048 5.22786458,9.23623512 4.41623264,9.51450893 C4.35257523,9.53087798 4.24316406,9.56156994 4.08799913,9.60658482 C3.9328342,9.6515997 3.79557292,9.69047619 3.67621528,9.72321429 C3.55685764,9.75595238 3.48922164,9.77641369 3.47330729,9.78459821 C3.45739294,9.80096726 3.44943576,9.84393601 3.44943576,9.91350446 C3.44943576,9.98307292 3.44545718,10.0219494 3.4375,10.0301339 C3.39771412,10.1119792 3.27437789,10.1733631 3.06749132,10.2142857 C2.88447627,10.2715774 2.69748264,10.2715774 2.50651042,10.2142857 C2.36328125,10.1815476 2.25188079,10.0956101 2.17230903,9.95647321 C2.14048032,9.90736607 2.12058738,9.81324405 2.11263021,9.67410714 C2.16037326,9.6577381 2.25784867,9.63727679 2.40505642,9.61272321 C2.55226418,9.58816964 2.66963252,9.56361607 2.75716146,9.5390625 C3.21867766,9.40811012 3.6364294,9.27715774 4.01041667,9.14620536 C4.80613426,8.85974702 5.21195023,8.71651786 5.22786458,8.71651786 C5.30743634,8.70014881 5.47851562,8.6203497 5.74110243,8.47712054 C6.00368924,8.33389137 6.17874711,8.24590774 6.26627604,8.21316964 C6.33789062,8.18861607 6.42343027,8.15587798 6.52289497,8.11495536 C6.62235966,8.07403274 6.68004919,8.0515253 6.69596354,8.04743304 C6.71187789,8.04334077 6.73574942,8.0453869 6.76757812,8.05357143 C6.78349248,8.15178571 6.77951389,8.28683036 6.75564236,8.45870536 C6.75564236,8.4750744 6.70591001,8.58556548 6.60644531,8.79017857 C6.50698061,8.99479167 6.40154803,9.21372768 6.29014757,9.44698661 C6.17874711,9.68024554 6.11111111,9.81733631 6.08723958,9.85825893 C5.88831019,10.2674851 5.58195891,10.8035714 5.16818576,11.4665179 L5.93207465,11.8102679 C6.02756076,11.859375 6.32396557,11.9903274 6.82128906,12.203125 C7.31861256,12.4159226 7.58716725,12.530506 7.62695312,12.546875 C7.65878183,12.5550595 7.700557,12.6594122 7.75227865,12.859933 C7.80400029,13.0604539 7.82190394,13.1852679 7.80598958,13.234375 Z M5.35915799,7.26785714 C5.38302951,7.390625 5.36711516,7.50520833 5.31141493,7.61160714 C5.21592882,7.79985119 5.01699942,7.95535714 4.71462674,8.078125 C4.47591146,8.17633929 4.23719618,8.22544643 3.9984809,8.22544643 C3.79159433,8.20089286 3.59664352,8.09449405 3.41362847,7.90625 C3.30222801,7.78348214 3.23061343,7.6156994 3.19878472,7.40290179 L3.21072049,7.36607143 C3.23459201,7.390625 3.31217448,7.41108631 3.44346788,7.42745536 C3.57476128,7.4438244 3.68019387,7.4438244 3.75976562,7.42745536 C3.83933738,7.41108631 4.07009549,7.34561012 4.45203993,7.23102679 C4.73849826,7.1328125 4.9573206,7.07552083 5.10850694,7.05915179 C5.24377894,7.05915179 5.32732928,7.12872024 5.35915799,7.26785714 Z M13.6903212,8.8515625 L14.4422743,11.6383929 L12.7832031,11.1227679 L13.6903212,8.8515625 Z M0.465494792,18.6729911 L8.74891493,15.8247768 L8.74891493,3.15513393 L0.465494792,6.015625 L0.465494792,18.6729911 Z M15.2777778,14.78125 L16.4952257,15.1618304 L14.3348524,7.09598214 L13.141276,6.71540179 L10.563151,13.2957589 L11.780599,13.6763393 L12.3177083,12.3258929 L14.8361545,13.1238839 L15.2777778,14.78125 Z M9.27408854,2.97098214 L16.1132812,5.22991071 L16.1132812,0.564732143 L9.27408854,2.97098214 Z M12.9861111,19.2131696 L14.8719618,19.3727679 L14.2274306,21.3370536 L13.75,20.5267857 C12.7155671,21.2061012 11.6174769,21.6480655 10.4557292,21.8526786 C9.99421296,21.9508929 9.63216146,22 9.36957465,22 L8.36697049,22 C7.73835359,22 6.94462529,21.8404018 5.98578559,21.5212054 C5.02694589,21.2020089 4.296875,20.8541667 3.79557292,20.4776786 C3.73191551,20.4203869 3.70008681,20.3549107 3.70008681,20.28125 C3.70008681,20.2157738 3.71997975,20.1605283 3.75976562,20.1155134 C3.7995515,20.0704985 3.85127315,20.0479911 3.91493056,20.0479911 C3.94675926,20.0479911 4.01837384,20.078683 4.12977431,20.140067 C4.24117477,20.2014509 4.3625217,20.2689732 4.4938151,20.3426339 C4.62510851,20.4162946 4.70666956,20.4613095 4.73849826,20.4776786 C5.31937211,20.780506 5.95395689,21.0321801 6.6422526,21.2327009 C7.33054832,21.4332217 7.95717593,21.5334821 8.52213542,21.5334821 C9.27806713,21.5334821 9.94249132,21.4741443 10.515408,21.3554688 C11.0883247,21.2367932 11.712963,21.0301339 12.3893229,20.7354911 C12.5086806,20.6781994 12.6300275,20.6147693 12.7533637,20.5452009 C12.8766999,20.4756324 13.0119719,20.3978795 13.1591797,20.311942 C13.3063874,20.2260045 13.4197772,20.1584821 13.499349,20.109375 L12.9861111,19.2131696 Z M18.3333333,5.96651786 L18.3333333,19.2131696 L9.09505208,16.1930804 C8.98365162,16.2421875 7.49168113,16.7639509 4.61914062,17.7583705 C1.74660012,18.7527902 0.282479745,19.25 0.226779514,19.25 C0.123336227,19.25 0.0517216435,19.1968006 0.0119357639,19.0904018 C0.0119357639,19.0822173 0.00795717593,19.0699405 0,19.0535714 L0,5.81919643 C0.0238715278,5.74553571 0.0397858796,5.7046131 0.0477430556,5.69642857 C0.0875289352,5.64732143 0.167100694,5.60230655 0.286458333,5.56138393 C1.12991898,5.2749256 1.72272859,5.0703125 2.06488715,4.94754464 L2.06488715,0.233258929 L8.7250434,2.6640625 C8.74095775,2.6640625 9.37952112,2.4389881 10.6407335,1.98883929 C11.9019459,1.53869048 13.1591797,1.09468006 14.4124349,0.656808036 C15.6656901,0.218936012 16.3082321,0 16.3400608,0 C16.4992043,0 16.578776,0.0859375 16.578776,0.2578125 L16.578776,5.38950893 L18.3333333,5.96651786 Z" id="path-1"></path>
    </defs>
    <g id="Symbols" stroke="none" stroke-width="1" fill="none" fill-rule="evenodd">
        <g id="Icons/Language" transform="translate(-3.000000, -1.000000)">
            <g id="Colors/BG/White_Dashboard-Card-BG" transform="translate(3.000000, 1.000000)">
                <mask id="mask-2" fill="white">
                    <use xlink:href="#path-1"></use>
                </mask>
                <use id="-" fill="#9E9E9E" fill-rule="nonzero" xlink:href="#path-1"></use>
            </g>
        </g>
    </g>
</svg>