<?xml version="1.0" encoding="UTF-8"?>
<svg width="18px" height="18px" viewBox="0 0 18 18" version="1.1" xmlns="http://www.w3.org/2000/svg" xmlns:xlink="http://www.w3.org/1999/xlink">
    <!-- Generator: Sketch 50.2 (55047) - http://www.bohemiancoding.com/sketch -->
    <title>Icons/Send</title>
    <desc>Created with Sketch.</desc>
    <defs>
        <path d="M4.74879808,13.7487981 L1.97956731,16.5180288 C1.90745192,16.5829327 1.82451923,16.6153846 1.73076923,16.6153846 C1.64423077,16.6153846 1.56129808,16.5829327 1.48197115,16.5180288 C1.41706731,16.4459135 1.38461538,16.3629808 1.38461538,16.2692308 C1.38461538,16.1754808 1.41706731,16.0925481 1.48197115,16.0204327 L4.25120192,13.2512019 C4.32331731,13.1862981 4.40625,13.1538462 4.5,13.1538462 C4.59375,13.1538462 4.67668269,13.1862981 4.74879808,13.2512019 C4.81370192,13.3233173 4.84615385,13.40625 4.84615385,13.5 C4.84615385,13.59375 4.81370192,13.6766827 4.74879808,13.7487981 Z M6.57692308,14.1923077 L6.57692308,17.6538462 C6.57692308,17.7548077 6.54447115,17.8377404 6.47956731,17.9026442 C6.41466346,17.9675481 6.33173077,18 6.23076923,18 C6.12980769,18 6.046875,17.9675481 5.98197115,17.9026442 C5.91706731,17.8377404 5.88461538,17.7548077 5.88461538,17.6538462 L5.88461538,14.1923077 C5.88461538,14.0913462 5.91706731,14.0084135 5.98197115,13.9435096 C6.046875,13.8786058 6.12980769,13.8461538 6.23076923,13.8461538 C6.33173077,13.8461538 6.41466346,13.8786058 6.47956731,13.9435096 C6.54447115,14.0084135 6.57692308,14.0913462 6.57692308,14.1923077 Z M4.15384615,11.7692308 C4.15384615,11.8701923 4.12139423,11.953125 4.05649038,12.0180288 C3.99158654,12.0829327 3.90865385,12.1153846 3.80769231,12.1153846 L0.346153846,12.1153846 C0.245192308,12.1153846 0.162259615,12.0829327 0.0973557692,12.0180288 C0.0324519231,11.953125 0,11.8701923 0,11.7692308 C0,11.6682692 0.0324519231,11.5853365 0.0973557692,11.5204327 C0.162259615,11.4555288 0.245192308,11.4230769 0.346153846,11.4230769 L3.80769231,11.4230769 C3.90865385,11.4230769 3.99158654,11.4555288 4.05649038,11.5204327 C4.12139423,11.5853365 4.15384615,11.6682692 4.15384615,11.7692308 Z M17.8269231,13.1538462 C17.8269231,14.0192308 17.5204327,14.7512019 16.9074519,15.3497596 L15.3173077,16.9290865 C14.71875,17.5276442 13.9867788,17.8269231 13.1213942,17.8269231 C12.2487981,17.8269231 11.5132212,17.5204327 10.9146635,16.9074519 L7.30168269,13.2836538 C7.15024038,13.1322115 6.99879808,12.9302885 6.84735577,12.6778846 L9.43269231,12.4831731 L12.3858173,15.4471154 C12.5805288,15.6418269 12.8257212,15.7409856 13.1213942,15.7445913 C13.4170673,15.7481971 13.6622596,15.6526442 13.8569712,15.4579327 L15.4471154,13.8786058 C15.6490385,13.6766827 15.75,13.4350962 15.75,13.1538462 C15.75,12.8653846 15.6490385,12.6201923 15.4471154,12.4182692 L12.4831731,9.44350962 L12.6778846,6.85817308 C12.9302885,7.00961538 13.1322115,7.16105769 13.2836538,7.3125 L16.9182692,10.9471154 C17.5240385,11.5673077 17.8269231,12.3028846 17.8269231,13.1538462 Z M11.1526442,5.32211538 L8.56730769,5.51682692 L5.61418269,2.55288462 C5.41225962,2.35096154 5.16706731,2.25 4.87860577,2.25 C4.59735577,2.25 4.35216346,2.34735577 4.14302885,2.54206731 L2.55288462,4.12139423 C2.35096154,4.32331731 2.25,4.56490385 2.25,4.84615385 C2.25,5.13461538 2.35096154,5.37980769 2.55288462,5.58173077 L5.51682692,8.54567308 L5.32211538,11.1418269 C5.06971154,10.9903846 4.86778846,10.8389423 4.71634615,10.6875 L1.08173077,7.05288462 C0.475961538,6.43269231 0.173076923,5.69711538 0.173076923,4.84615385 C0.173076923,3.98076923 0.479567308,3.24879808 1.09254808,2.65024038 L2.68269231,1.07091346 C3.28125,0.472355769 4.01322115,0.173076923 4.87860577,0.173076923 C5.75120192,0.173076923 6.48677885,0.479567308 7.08533654,1.09254808 L10.6983173,4.71634615 C10.8497596,4.86778846 11.0012019,5.06971154 11.1526442,5.32211538 Z M18,6.23076923 C18,6.33173077 17.9675481,6.41466346 17.9026442,6.47956731 C17.8377404,6.54447115 17.7548077,6.57692308 17.6538462,6.57692308 L14.1923077,6.57692308 C14.0913462,6.57692308 14.0084135,6.54447115 13.9435096,6.47956731 C13.8786058,6.41466346 13.8461538,6.33173077 13.8461538,6.23076923 C13.8461538,6.12980769 13.8786058,6.046875 13.9435096,5.98197115 C14.0084135,5.91706731 14.0913462,5.88461538 14.1923077,5.88461538 L17.6538462,5.88461538 C17.7548077,5.88461538 17.8377404,5.91706731 17.9026442,5.98197115 C17.9675481,6.046875 18,6.12980769 18,6.23076923 Z M12.1153846,0.346153846 L12.1153846,3.80769231 C12.1153846,3.90865385 12.0829327,3.99158654 12.0180288,4.05649038 C11.953125,4.12139423 11.8701923,4.15384615 11.7692308,4.15384615 C11.6682692,4.15384615 11.5853365,4.12139423 11.5204327,4.05649038 C11.4555288,3.99158654 11.4230769,3.90865385 11.4230769,3.80769231 L11.4230769,0.346153846 C11.4230769,0.245192308 11.4555288,0.162259615 11.5204327,0.0973557692 C11.5853365,0.0324519231 11.6682692,0 11.7692308,0 C11.8701923,0 11.953125,0.0324519231 12.0180288,0.0973557692 C12.0829327,0.162259615 12.1153846,0.245192308 12.1153846,0.346153846 Z M16.5180288,1.97956731 L13.7487981,4.74879808 C13.6694712,4.81370192 13.5865385,4.84615385 13.5,4.84615385 C13.4134615,4.84615385 13.3305288,4.81370192 13.2512019,4.74879808 C13.1862981,4.67668269 13.1538462,4.59375 13.1538462,4.5 C13.1538462,4.40625 13.1862981,4.32331731 13.2512019,4.25120192 L16.0204327,1.48197115 C16.0925481,1.41706731 16.1754808,1.38461538 16.2692308,1.38461538 C16.3629808,1.38461538 16.4459135,1.41706731 16.5180288,1.48197115 C16.5829327,1.55408654 16.6153846,1.63701923 16.6153846,1.73076923 C16.6153846,1.82451923 16.5829327,1.90745192 16.5180288,1.97956731 Z" id="path-1"></path>
    </defs>
    <g id="Symbols" stroke="none" stroke-width="1" fill="none" fill-rule="evenodd">
        <g id="Button/Outline/Warning" transform="translate(-15.000000, -14.000000)">
            <g id="Icons/Unlink" transform="translate(15.000000, 14.000000)">
                <g id="Colors/BG/White_Dashboard-Card-BG">
                    <mask id="mask-2" fill="white">
                        <use xlink:href="#path-1"></use>
                    </mask>
                    <use id="Mask" fill="#000000" fill-rule="nonzero" xlink:href="#path-1"></use>
                    <g id="Colors/Status/Orange_Error" mask="url(#mask-2)" fill="#E3601F">
                        <rect id="Rectangle-2-Copy-3" x="0" y="0" width="18" height="18"></rect>
                    </g>
                </g>
            </g>
        </g>
    </g>
</svg>