
<svg width="69px" height="68px" viewBox="0 0 69 68" version="1.1" xmlns="http://www.w3.org/2000/svg" xmlns:xlink="http://www.w3.org/1999/xlink">
<!-- Generator: Sketch 49 (51002) - http://www.bohemiancoding.com/sketch -->
<desc>Created with Sketch.</desc>
<defs>
<path d="M30.4373,22.3481 C24.7753,29.4891 15.0913,30.2191 14.6663,30.2471 C14.6383,30.2491 14.6103,30.2501 14.5823,30.2501 C13.9303,30.2501 13.3813,29.7451 13.3373,29.0841 C13.2903,28.3961 13.8103,27.8001 14.4983,27.7531 C14.5893,27.7471 23.0753,27.0891 28.1123,21.2381 L26.9543,20.6851 C26.2593,20.3541 26.1843,19.3951 26.8193,18.9591 L31.1553,15.9801 C31.7903,15.5451 32.6583,15.9591 32.7193,16.7261 L33.1303,21.9711 C33.1903,22.7391 32.3973,23.2841 31.7033,22.9521 L30.4373,22.3481 Z M21.0904,34.5005 C24.0604,36.1725 25.9744,38.2195 26.7694,40.6045 C28.9674,47.2005 23.7464,53.318 23.4824,53.626 C23.2354,53.914 22.8854,54.063 22.5334,54.063 C22.2454,54.063 21.9574,53.964 21.7214,53.762 C21.1974,53.313 21.1354,52.524 21.5834,52 C21.6384,51.936 26.1474,46.6445 24.3974,41.3955 C23.7314,39.3995 21.9324,37.9065 20.1994,36.8745 L19.7324,38.1195 C19.4614,38.8395 18.5124,38.9975 18.0234,38.4025 L14.6834,34.3375 C14.1944,33.7435 14.5324,32.8425 15.2914,32.7165 L20.4814,31.8545 C21.2414,31.7295 21.8524,32.4725 21.5824,33.1935 L21.0904,34.5005 Z M40.3355,39.9374 C41.1375,23.8804 49.9525,21.8554 50.3275,21.7764 C51.0045,21.6304 51.6665,22.0694 51.8065,22.7444 C51.9475,23.4164 51.5195,24.0754 50.8495,24.2214 C50.5335,24.2944 43.5305,26.0874 42.8315,40.0624 C42.2585,51.5344 36.9425,55.6344 32.1755,56.9834 L32.2205,58.3844 C32.2455,59.1544 31.4285,59.6624 30.7495,59.2984 L26.1105,56.8174 C25.4315,56.4544 25.4005,55.4924 26.0545,55.0864 L30.5225,52.3084 C31.1765,51.9024 32.0255,52.3564 32.0505,53.1264 L32.0905,54.3784 C37.1015,52.6424 39.9475,47.6954 40.3355,39.9374 Z M62.9671,38.7207 C60.3081,39.0467 58.2401,41.2867 58.2401,44.0347 C58.2401,45.6407 58.9581,47.0667 60.0741,48.0517 C55.4321,57.0157 46.0731,63.1587 35.3021,63.1587 C30.6221,63.1587 26.2101,61.9947 22.3331,59.9487 C22.3311,56.9787 19.9241,54.5727 16.9531,54.5727 C16.4221,54.5727 15.9191,54.6727 15.4341,54.8167 C10.4801,49.7807 7.4161,42.8787 7.4161,35.2727 C7.4161,35.2657 7.4161,35.2577 7.4161,35.2507 C9.4191,34.4677 10.8421,32.5307 10.8421,30.2497 C10.8421,28.6147 10.0971,27.1677 8.9461,26.1807 C9.9101,23.3937 11.3001,20.8037 13.0451,18.4947 C13.7121,18.7907 14.4461,18.9627 15.2221,18.9627 C18.1941,18.9627 20.6021,16.5547 20.6021,13.5837 C20.6021,12.9547 20.4741,12.3607 20.2761,11.7997 C22.8341,10.1567 25.6741,8.9197 28.7101,8.1807 C29.5601,10.0307 31.4181,11.3217 33.5881,11.3217 C35.9771,11.3217 37.9791,9.7537 38.6811,7.5987 C44.6171,8.3197 49.9851,10.9077 54.1721,14.7637 C53.6191,15.6097 53.2911,16.6167 53.2911,17.7017 C53.2911,20.6727 55.7001,23.0807 58.6711,23.0807 C59.2221,23.0807 59.7421,22.9747 60.2421,22.8207 C62.1221,26.5717 63.1881,30.7997 63.1881,35.2727 C63.1881,36.4417 63.1071,37.5897 62.9671,38.7207 M67.1881,35.2727 C67.1881,29.8297 65.8151,24.7027 63.4001,20.2157 C63.8021,19.4627 64.0511,18.6157 64.0511,17.7017 C64.0511,14.7307 61.6431,12.3217 58.6711,12.3217 C58.2801,12.3217 57.9021,12.3677 57.5341,12.4477 C52.4771,7.5187 45.7961,4.2507 38.3761,3.5377 C37.4911,1.7807 35.6901,0.5627 33.5881,0.5627 C31.2621,0.5627 29.3001,2.0467 28.5491,4.1137 C24.5701,4.9747 20.8651,6.5767 17.5891,8.7747 C16.8721,8.4207 16.0761,8.2037 15.2221,8.2037 C12.2511,8.2037 9.8421,10.6127 9.8421,13.5837 C9.8421,14.2957 9.9881,14.9727 10.2401,15.5957 C8.0601,18.3657 6.3291,21.5037 5.1571,24.9017 C2.3311,25.0627 0.0831,27.3837 0.0831,30.2497 C0.0831,32.4957 1.4621,34.4157 3.4171,35.2217 C3.4161,43.8187 6.8011,51.5817 12.2921,57.3137 C11.8481,58.0957 11.5741,58.9877 11.5741,59.9507 C11.5741,62.9227 13.9831,65.3307 16.9531,65.3307 C18.4791,65.3307 19.8491,64.6907 20.8281,63.6697 C25.1751,65.8957 30.0921,67.1587 35.3021,67.1587 C47.8181,67.1587 58.6671,59.9077 63.8831,49.3877 C66.7301,49.2477 69.0001,46.9157 69.0001,44.0347 C69.0001,42.2877 68.1551,40.7517 66.8641,39.7697 C67.0731,38.2987 67.1881,36.7997 67.1881,35.2727 Z" id="path-1"></path>
</defs>
<g id="Style-Guides" stroke="none" stroke-width="1" fill="none" fill-rule="evenodd">
<g id="ORCHID---Icons" transform="translate(-1260.000000, -867.000000)">
<g id="Icons/Internet-Status" transform="translate(1260.000000, 867.000000)">
<mask id="mask-2" fill="white">
<use xlink:href="#path-1"></use>
</mask>
<use id="Fill-7" fill="#666666" fill-rule="evenodd" xlink:href="#path-1"></use>
<g id="Colors/Grey/90%" mask="url(#mask-2)" fill="#212121" fill-rule="evenodd">
<rect id="Rectangle-2-Copy-6" x="0" y="0" width="69" height="69"></rect>
</g>
</g>
</g>
</g>
</svg>
