<?xml version="1.0" encoding="UTF-8"?>
<svg width="78px" height="70px" viewBox="0 0 78 70" version="1.1" xmlns="http://www.w3.org/2000/svg" xmlns:xlink="http://www.w3.org/1999/xlink">
    <!-- Generator: Sketch 47 (45396) - http://www.bohemiancoding.com/sketch -->
    <title>Page 1</title>
    <desc>Created with Sketch.</desc>
    <defs>
        <filter x="-6.7%" y="-6.0%" width="113.3%" height="114.9%" filterUnits="objectBoundingBox" id="filter-1">
            <feOffset dx="0" dy="1" in="SourceAlpha" result="shadowOffsetOuter1"></feOffset>
            <feGaussianBlur stdDeviation="1.5" in="shadowOffsetOuter1" result="shadowBlurOuter1"></feGaussianBlur>
            <feColorMatrix values="0 0 0 0 0   0 0 0 0 0   0 0 0 0 0  0 0 0 0.391276042 0" type="matrix" in="shadowBlurOuter1" result="shadowMatrixOuter1"></feColorMatrix>
            <feMerge>
                <feMergeNode in="shadowMatrixOuter1"></feMergeNode>
                <feMergeNode in="SourceGraphic"></feMergeNode>
            </feMerge>
        </filter>
        <polygon id="path-2" points="0 0 74.5112436 4.39614277e-14 74.5112436 66.1606382 0 66.1606382 0 4.39614277e-14"></polygon>
    </defs>
    <g id="Symbols" stroke="none" stroke-width="1" fill="none" fill-rule="evenodd">
        <g id="Toggle-/-off-/-New" transform="translate(1.000000, -1.000000)">
            <g id="Page-1" filter="url(#filter-1)" transform="translate(0.000000, 2.000000)">
                <ellipse id="Oval" fill="#3F414C" cx="24" cy="36" rx="10" ry="5"></ellipse>
                <ellipse id="Oval-Copy" fill="#3F414C" cx="57" cy="36" rx="10" ry="5"></ellipse>
                <mask id="mask-3" fill="white">
                    <use xlink:href="#path-2"></use>
                </mask>
                <g id="Clip-2"></g>
                <ellipse id="Oval-2" fill="#3F414C" mask="url(#mask-3)" cx="50.5" cy="53" rx="5.5" ry="4"></ellipse>
                <ellipse id="Oval-2-Copy" fill="#3F414C" mask="url(#mask-3)" cx="23.5" cy="52" rx="5.5" ry="4"></ellipse>
                <path d="M31.1928436,46.3150846 C28.8428436,41.5690846 30.3948436,38.0220846 32.5538436,36.0480846 C33.8208436,34.8880846 35.2988436,34.2710846 36.3178436,34.2720846 C37.2728436,34.2730846 37.3548436,34.8570846 37.1338436,35.5830846 C36.4508436,37.8390846 35.8788436,37.7780846 35.6398436,40.5990846 C35.4608436,42.7130846 35.4948436,44.9770846 35.1758436,46.5070846 C34.5408436,49.5650846 32.2298436,48.4080846 31.1928436,46.3150846 M44.2738436,46.3150846 C46.6238436,41.5690846 45.0708436,38.0220846 42.9128436,36.0480846 C41.6458436,34.8880846 40.1678436,34.2710846 39.1488436,34.2720846 C38.1938436,34.2730846 38.1128436,34.8570846 38.3328436,35.5830846 C39.0158436,37.8390846 39.5878436,37.7780846 39.8268436,40.5990846 C40.0058436,42.7130846 39.9718436,44.9770846 40.2908436,46.5070846 C40.9258436,49.5650846 43.2368436,48.4080846 44.2738436,46.3150846 M43.3648436,33.3460846 C45.4838436,28.0100846 45.1828436,24.3980846 47.7238436,22.2180846 C52.7318436,17.9240846 63.0688436,19.5320846 68.7678436,21.9620846 C71.3518436,23.0650846 73.6018436,24.4690846 73.5078436,25.9960846 C73.0518436,33.4360846 69.5978436,43.7860846 62.6298436,47.1050846 C57.7468436,49.4300846 52.6308436,45.3250846 46.1308436,42.3730846 C46.1308436,41.1190846 45.9748436,40.0340846 45.6828436,39.0800846 L60.7488436,32.1550846 L45.0768436,37.6120846 C44.5068436,36.5400846 43.7228436,35.6560846 42.7698436,34.8750846 C43.0128436,34.2840846 43.2138436,33.7270846 43.3648436,33.3460846 M32.1468436,33.3460846 C30.0268436,28.0100846 30.3278436,24.3980846 27.7868436,22.2180846 C22.7788436,17.9240846 12.4428436,19.5320846 6.74284363,21.9620846 C4.15884363,23.0650846 1.90884363,24.4690846 2.00284363,25.9960846 C2.45984363,33.4360846 5.91284363,43.7860846 12.8808436,47.1050846 C17.6908436,49.3960846 22.7268436,45.4470846 29.0888436,42.5060846 C29.2788436,41.3100846 29.3938436,40.2650846 29.6808436,39.2580846 L15.1318436,31.7290846 L30.4088436,37.5150846 C30.8978436,36.6620846 31.6168436,35.7900846 32.7218436,34.8280846 C32.4878436,34.2540846 32.2938436,33.7160846 32.1468436,33.3460846 M6.30184363,59.0230846 C5.67184363,66.3680846 8.83984363,63.5880846 14.6068436,64.5790846 C26.3198436,66.5930846 33.4498436,61.2970846 36.4328436,53.9690846 C33.6398436,53.2670846 30.6618436,53.8960846 29.3098436,50.5230846 L21.1068436,55.3900846 L28.8418436,49.2000846 C28.5988436,48.4160846 28.3808436,47.5440846 28.1848436,46.5730846 C29.9278436,47.8490846 33.2388436,50.9660846 34.9658436,48.3750846 C32.2558436,50.6680846 29.5648436,45.9720846 29.2088436,44.0570846 C27.4088436,44.9210846 26.0138436,45.8050846 23.8198436,46.7260846 C19.0608436,48.7230846 14.0848436,50.5500846 11.2338436,47.3570846 C7.39684363,51.5150846 6.77684363,53.4480846 6.30184363,59.0230846 Z M69.2578436,59.0230846 C69.8878436,66.3680846 66.7198436,63.5880846 60.9538436,64.5790846 C49.2408436,66.5930846 42.1098436,62.2970846 39.1278436,54.9690846 C42.0948436,54.2220846 45.1418436,53.7230846 46.4978436,49.8680846 L55.0098436,55.0590846 L46.9188436,48.5100846 C47.0838436,47.9120846 47.2348436,47.2690846 47.3748436,46.5730846 C45.7108436,47.7910846 42.6198436,50.6860846 40.8398436,48.6920846 C44.0128436,50.4300846 45.5468436,45.9370846 45.8868436,43.9220846 C47.7348436,44.8040846 49.4928436,45.7820846 51.7398436,46.7260846 C56.4998436,48.7240846 61.4748436,50.5500846 64.3268436,47.3570846 C68.1638436,51.5150846 68.7828436,53.4480846 69.2578436,59.0230846 Z M31.2678436,4.53408457 C37.0388436,-0.327915429 38.3558436,-0.328915429 43.5858436,5.50208457 C47.8728436,10.2820846 50.2168436,15.0650846 49.7828436,19.4280846 C47.9168436,20.1990846 46.6828436,21.3240846 45.6488436,22.9230846 C43.3248436,26.5180846 43.5228436,31.5480846 42.0518436,34.1120846 C41.3428436,33.4310846 40.1948436,34.0200846 38.9258436,33.8850846 L38.4658436,25.9490846 L37.2838436,33.8640846 C35.9408436,33.9660846 34.6038436,34.3600846 33.6088436,35.0550846 C31.3218436,31.3880846 31.6838436,26.9860846 30.1418436,23.7290846 C29.0488436,21.4190846 27.6628436,20.4170846 23.9868436,19.1900846 C23.7308436,13.6310846 26.3378436,8.68708457 31.2678436,4.53408457 Z M36.9948436,54.6400846 C38.0928436,54.1120846 38.4218436,54.6860846 39.5488436,54.8640846 C42.8418436,55.3860846 45.5068436,51.8020846 46.3928436,48.2580846 C45.4468436,48.5900846 39.4578436,53.3250846 39.4688436,45.8630846 C38.3688436,46.2210846 37.4308436,46.0890846 36.3868436,45.7930846 C36.0888436,47.1340846 35.6708436,53.2240846 29.5358436,48.6370846 C30.3648436,51.9620846 33.6928436,56.2270846 36.9948436,54.6400846" id="Fill-1" fill="#E9E9E9" mask="url(#mask-3)"></path>
                <path d="M48.6364636,43.3182318 C48.6364636,49.0169152 44.0169152,53.6373496 38.3182318,53.6373496 C32.6195484,53.6373496 28,49.0169152 28,43.3182318 C28,37.6195484 32.6195484,33 38.3182318,33 C44.0169152,33 48.6364636,37.6195484 48.6364636,43.3182318 Z" id="Fill-4" fill="#E9E9E9" mask="url(#mask-3)"></path>
                <path d="M39.2335791,38.4185905 C39.2335791,39.3931787 38.7312232,40.1905691 38.1172326,40.1905691 C37.5032419,40.1905691 37,39.3931787 37,38.4185905 L37,25.7719787 C37,24.7965044 37.5032419,24 38.1172326,24 C38.7312232,24 39.2335791,24.7965044 39.2335791,25.7719787 L39.2335791,38.4185905 Z" id="Fill-6" stroke="#3F414C" fill="#3F414C" mask="url(#mask-3)"></path>
                <path d="M41.4415234,34.2420372 C45.1875833,35.6357818 47.8673394,39.2249076 47.8792155,43.4578874 C47.8953331,48.9141051 43.4859084,53.3506751 38.0296908,53.3667926 C32.5726248,53.3829102 28.1369031,48.9726372 28.1207855,43.5164196 C28.1080612,39.2876813 30.7606719,35.6858311 34.4923109,34.2666377 L34.4923109,32.020359 C29.5654277,33.52523 25.9839366,38.1051614 26.0000542,43.5223576 C26.0195649,50.1500673 31.4079192,55.5070347 38.0356288,55.4866757 C44.6624902,55.4680133 50.0194576,50.0788107 49.9999469,43.4519494 C49.9838293,38.0347532 46.3760411,33.4768773 41.4415234,32 L41.4415234,34.2420372 Z" id="Fill-8" stroke="#3F414C" fill="#3F414C" mask="url(#mask-3)"></path>
            </g>
        </g>
    </g>
</svg>