<svg width="18px" height="22px" viewBox="0 0 18 22" version="1.1" xmlns="http://www.w3.org/2000/svg" xmlns:xlink="http://www.w3.org/1999/xlink">
    <!-- Generator: Sketch 49.1 (51147) - http://www.bohemiancoding.com/sketch -->
    <desc>Created with Sketch.</desc>
    <defs>
        <path d="M11,0 L7,0 C6.44771525,1.01453063e-16 6,0.44771525 6,1 L6,1.04081633 C6,1.59310108 6.44771525,2.04081633 7,2.04081633 L11,2.04081633 C11.5522847,2.04081633 12,1.59310108 12,1.04081633 L12,1 C12,0.44771525 11.5522847,-1.01453063e-16 11,0 Z M9,13.2653061 L9,13.2653061 C9.55228475,13.2653061 10,12.8175909 10,12.2653061 L10,8.14285714 C10,7.59057239 9.55228475,7.14285714 9,7.14285714 L9,7.14285714 C8.44771525,7.14285714 8,7.59057239 8,8.14285714 L8,12.2653061 C8,12.8175909 8.44771525,13.2653061 9,13.2653061 Z M16.03,6.52040816 L16.76407,5.77135715 C17.1451195,5.38253108 17.1451195,4.76032606 16.76407,4.37149999 L16.745,4.35204082 C16.3634265,3.96268007 15.7384607,3.95636728 15.3491,4.33794082 C15.3443526,4.34259322 15.3396524,4.34729346 15.335,4.35204082 L14.62,5.08163265 C13.07,3.81632653 11.12,3.06122449 9,3.06122449 C4.03,3.06122449 0,7.17346939 0,12.244898 C0,17.3163265 4.02,21.4285714 9,21.4285714 C13.98,21.4285714 18,17.3163265 18,12.244898 C18,10.0816327 17.26,8.09183673 16.03,6.52040816 Z M9,19.3877551 C5.13,19.3877551 2,16.1938776 2,12.244898 C2,8.29591837 5.13,5.10204082 9,5.10204082 C12.87,5.10204082 16,8.29591837 16,12.244898 C16,16.1938776 12.87,19.3877551 9,19.3877551 Z" id="path-1"></path>
    </defs>
    <g id="Symbols" stroke="none" stroke-width="1" fill="none" fill-rule="evenodd">
        <g id="Icons/Timer" transform="translate(-3.000000, -1.000000)">
            <g transform="translate(3.000000, 1.000000)">
                <mask id="mask-2" fill="white">
                    <use xlink:href="#path-1"></use>
                </mask>
                <use id="Mask" fill="#000000" fill-rule="nonzero" xlink:href="#path-1"></use>
                <g id="Colors/Grey/90%" mask="url(#mask-2)" fill="#212121">
                    <g transform="translate(-3.000000, -1.000000)" id="Rectangle-2-Copy-6">
                        <rect x="0" y="0" width="24" height="24"></rect>
                    </g>
                </g>
            </g>
        </g>
    </g>
</svg>
