<svg id="Layer_1" data-name="Layer 1" xmlns="http://www.w3.org/2000/svg" viewBox="0 0 1051.22 653"><defs><style>.cls-1{fill:#18becc;}.cls-2{fill:#3f414c;}.cls-3{fill:#f5a623;}.cls-4{fill:none;stroke:#3f414c;stroke-miterlimit:10;stroke-width:2px;}.cls-5{fill:#fff;}</style></defs><title>connect-placeholder</title><path class="cls-1" d="M630.42,460.3,604.3,417.87a11.29,11.29,0,0,0-9.61-5.37h-2.24a8.55,8.55,0,0,0,8.55-8.55v-92.9a8.55,8.55,0,0,0-8.55-8.55H461.55a8.55,8.55,0,0,0-8.55,8.55v92.9a8.55,8.55,0,0,0,8.55,8.55h-2.24a11.29,11.29,0,0,0-9.61,5.37L423.58,460.3a11.29,11.29,0,0,0,9.61,17.2H620.8A11.29,11.29,0,0,0,630.42,460.3Zm-77.55,5.12H501.14a3.11,3.11,0,0,1-2.65-4.74l7.2-11.7a3.11,3.11,0,0,1,2.65-1.48h37.33a3.11,3.11,0,0,1,2.65,1.48l7.2,11.7A3.11,3.11,0,0,1,552.86,465.42ZM525,308.5a2,2,0,1,1,2,2A2,2,0,0,1,525,308.5Zm62,92.42H467V314.08H587Z" transform="translate(-139.89 -60.5)"/><path class="cls-2" d="M553.35,379.63V369.7h0a26.34,26.34,0,0,0-52.63,0h0v9.93h-8.73V428.5h70.16V379.63Zm-41.82-10.72h0a15.47,15.47,0,0,1,30.87,0h0v10.72H511.53Z" transform="translate(-139.89 -60.5)"/><path class="cls-3" d="M348.42,218.3,322.3,175.87a11.29,11.29,0,0,0-9.61-5.37h-2.24a8.55,8.55,0,0,0,8.55-8.55V69.05a8.55,8.55,0,0,0-8.55-8.55H179.55A8.55,8.55,0,0,0,171,69.05v92.9a8.55,8.55,0,0,0,8.55,8.55h-2.24a11.29,11.29,0,0,0-9.61,5.37L141.58,218.3a11.29,11.29,0,0,0,9.61,17.2H338.8A11.29,11.29,0,0,0,348.42,218.3Zm-77.55,5.12H219.14a3.11,3.11,0,0,1-2.65-4.74l7.2-11.7a3.11,3.11,0,0,1,2.65-1.48h37.33a3.11,3.11,0,0,1,2.65,1.48l7.2,11.7A3.11,3.11,0,0,1,270.86,223.42ZM243,66.5a2,2,0,1,1,2,2A2,2,0,0,1,243,66.5Zm62,92.42H185V72.08H305Z" transform="translate(-139.89 -60.5)"/><path class="cls-3" d="M1189.42,696.3l-26.11-42.43a11.29,11.29,0,0,0-9.61-5.37h-2.24a8.55,8.55,0,0,0,8.55-8.55v-92.9a8.55,8.55,0,0,0-8.55-8.55h-130.9a8.55,8.55,0,0,0-8.55,8.55v92.9a8.55,8.55,0,0,0,8.55,8.55h-2.24a11.29,11.29,0,0,0-9.61,5.37L982.58,696.3a11.29,11.29,0,0,0,9.61,17.2H1179.8A11.29,11.29,0,0,0,1189.42,696.3Zm-77.55,5.12h-51.73a3.11,3.11,0,0,1-2.65-4.74l7.2-11.7a3.11,3.11,0,0,1,2.65-1.48h37.33a3.11,3.11,0,0,1,2.65,1.48l7.2,11.7A3.11,3.11,0,0,1,1111.86,701.42ZM1084,544.5a2,2,0,1,1,2,2A2,2,0,0,1,1084,544.5Zm62,92.42H1026V550.08h120Z" transform="translate(-139.89 -60.5)"/><path class="cls-4" d="M944.5,390c78.15,0,141.5,55.29,141.5,123.5" transform="translate(-139.89 -60.5)"/><path class="cls-4" d="M386,388.5c-78.15,0-141.5-55.29-141.5-123.5" transform="translate(-139.89 -60.5)"/><path class="cls-5" d="M533.76,397.76a6.76,6.76,0,1,0-9.82,6L521.1,419.4h11.8l-2.84-15.64A6.74,6.74,0,0,0,533.76,397.76Z" transform="translate(-139.89 -60.5)"/><path class="cls-1" d="M925.42,460.3,899.3,417.87a11.29,11.29,0,0,0-9.61-5.37h-2.24a8.55,8.55,0,0,0,8.55-8.55v-92.9a8.55,8.55,0,0,0-8.55-8.55H756.55a8.55,8.55,0,0,0-8.55,8.55v92.9a8.55,8.55,0,0,0,8.55,8.55h-2.24a11.29,11.29,0,0,0-9.61,5.37L718.58,460.3a11.29,11.29,0,0,0,9.61,17.2H915.8A11.29,11.29,0,0,0,925.42,460.3Zm-77.55,5.12H796.14a3.11,3.11,0,0,1-2.65-4.74l7.2-11.7a3.11,3.11,0,0,1,2.65-1.48h37.33a3.11,3.11,0,0,1,2.65,1.48l7.2,11.7A3.11,3.11,0,0,1,847.86,465.42ZM820,308.5a2,2,0,1,1,2,2A2,2,0,0,1,820,308.5Zm62,92.42H762V314.08H882Z" transform="translate(-139.89 -60.5)"/><path class="cls-2" d="M848.35,379.63V369.7h0a26.34,26.34,0,0,0-52.63,0h0v9.93h-8.73V428.5h70.16V379.63Zm-41.82-10.72h0a15.47,15.47,0,0,1,30.87,0h0v10.72H806.53Z" transform="translate(-139.89 -60.5)"/><path class="cls-5" d="M828.76,397.76a6.76,6.76,0,1,0-9.82,6L816.1,419.4h11.8l-2.84-15.64A6.74,6.74,0,0,0,828.76,397.76Z" transform="translate(-139.89 -60.5)"/><line class="cls-4" x1="502.11" y1="327.5" x2="574.11" y2="327.5"/></svg>