<?xml version="1.0" encoding="UTF-8"?>
<svg width="166px" height="106px" viewBox="0 0 166 106" version="1.1" xmlns="http://www.w3.org/2000/svg" xmlns:xlink="http://www.w3.org/1999/xlink">
    <!-- Generator: Sketch 47 (45396) - http://www.bohemiancoding.com/sketch -->
    <title>Page 1</title>
    <desc>Created with Sketch.</desc>
    <defs></defs>
    <g id="Getting-Started" stroke="none" stroke-width="1" fill="none" fill-rule="evenodd">
        <g id="Getting-Started---Step-1" transform="translate(-551.000000, -124.000000)">
            <g id="Page-1" transform="translate(551.000000, 123.000000)">
                <polygon id="Fill-1" fill="#99A1B0" points="48.1834375 23.4449159 45.1509602 23.4449159 48.5798239 20.1911432 45.1509602 16.9373705 48.1834375 16.9373705 51.6110852 20.1911432"></polygon>
                <polygon id="Fill-2" fill="#E9E9E9" points="43.9326193 23.4449159 40.900142 23.4449159 44.3277898 20.1911432 40.900142 16.9373705 43.9326193 16.9373705 47.360267 20.1911432"></polygon>
                <polygon id="Fill-3" fill="#99A1B0" points="56.8990739 23.4449159 53.8665966 23.4449159 57.2942443 20.1911432 53.8665966 16.9373705 56.8990739 16.9373705 60.3267216 20.1911432"></polygon>
                <polygon id="Fill-4" fill="#E9E9E9" points="52.6475261 23.4449159 49.6150489 23.4449159 53.0439125 20.1911432 49.6150489 16.9373705 52.6475261 16.9373705 56.0751739 20.1911432"></polygon>
                <polygon id="Fill-5" fill="#99A1B0" points="65.4021693 23.4449159 62.369692 23.4449159 65.7973398 20.1911432 62.369692 16.9373705 65.4021693 16.9373705 68.829817 20.1911432"></polygon>
                <polygon id="Fill-6" fill="#E9E9E9" points="61.1506216 23.4449159 58.1181443 23.4449159 61.545792 20.1911432 58.1181443 16.9373705 61.1506216 16.9373705 64.5782693 20.1911432"></polygon>
                <polygon id="Fill-7" fill="#99A1B0" points="110.248301 91.1427216 107.215824 91.1427216 110.643472 87.8889489 107.215824 84.6351761 110.248301 84.6351761 113.675949 87.8889489"></polygon>
                <polygon id="Fill-8" fill="#E9E9E9" points="105.996145 91.1427216 102.963668 91.1427216 106.391316 87.8889489 102.963668 84.6351761 105.996145 84.6351761 109.423793 87.8889489"></polygon>
                <polygon id="Fill-9" fill="#99A1B0" points="118.963938 91.1427216 115.93146 91.1427216 119.359108 87.8889489 115.93146 84.6351761 118.963938 84.6351761 122.391585 87.8889489"></polygon>
                <polygon id="Fill-10" fill="#E9E9E9" points="114.711782 91.1427216 111.679305 91.1427216 115.106952 87.8889489 111.679305 84.6351761 114.711782 84.6351761 118.13943 87.8889489"></polygon>
                <polygon id="Fill-11" fill="#99A1B0" points="127.465695 91.1427216 124.433218 91.1427216 127.860866 87.8889489 124.433218 84.6351761 127.465695 84.6351761 130.893343 87.8889489"></polygon>
                <polygon id="Fill-12" fill="#E9E9E9" points="123.214877 91.1427216 120.1824 91.1427216 123.610048 87.8889489 120.1824 84.6351761 123.214877 84.6351761 126.642525 87.8889489"></polygon>
                <polygon id="Fill-13" fill="#99A1B0" points="82.5798034 44.9904602 82.5798034 41.957983 85.8335761 45.3856307 89.0873489 41.957983 89.0873489 44.9904602 85.8335761 48.418108"></polygon>
                <polygon id="Fill-14" fill="#E9E9E9" points="82.5798034 40.7389125 82.5798034 37.7064352 85.8335761 41.134083 89.0873489 37.7064352 89.0873489 40.7389125 85.8335761 44.1665602"></polygon>
                <polygon id="Fill-15" fill="#99A1B0" points="82.5798034 53.7060966 82.5798034 50.6736193 85.8335761 54.101267 89.0873489 50.6736193 89.0873489 53.7060966 85.8335761 57.1337443"></polygon>
                <polygon id="Fill-16" fill="#E9E9E9" points="82.5798034 49.4539409 82.5798034 46.4214636 85.8335761 49.8491114 89.0873489 46.4214636 89.0873489 49.4539409 85.8335761 52.8815886"></polygon>
                <polygon id="Fill-17" fill="#99A1B0" points="82.5798034 62.2079761 82.5798034 59.1767148 85.8335761 62.6043625 89.0873489 59.1767148 89.0873489 62.2079761 85.8335761 65.6368398"></polygon>
                <polygon id="Fill-18" fill="#E9E9E9" points="82.5798034 57.9570364 82.5798034 54.9245591 85.8335761 58.3522068 89.0873489 54.9245591 89.0873489 57.9570364 85.8335761 61.3846841"></polygon>
                <g id="Group-52" transform="translate(0.000000, 0.293156)">
                    <path d="M19.195192,38.8012398 C14.2051011,38.8012398 9.51290795,36.858217 5.98433977,33.3296489 C-1.30017159,26.0451375 -1.30017159,14.1912398 5.98433977,6.90794432 C9.51290795,3.37816023 14.2051011,1.4351375 19.195192,1.4351375 C24.185283,1.4351375 28.8774761,3.37816023 32.4060443,6.90794432 C39.6905557,14.1912398 39.6905557,26.0451375 32.4060443,33.3296489 C28.8774761,36.858217 24.185283,38.8012398 19.195192,38.8012398" id="Fill-19" stroke="#F5B75B" fill="#FBD55D"></path>
                    <polygon id="Fill-24" fill="#FBD55D" points="133.316164 96.2951364 133.316164 78.3191364 148.983152 87.3642841 148.983152 105.340284"></polygon>
                    <path d="M133.059607,77.8759375 L133.059607,96.4428693 L149.239709,105.783483 L149.239709,87.217767 L133.059607,77.8759375 Z M133.571505,78.7623352 L148.727811,87.513233 L148.727811,104.898301 L133.571505,96.1461875 L133.571505,78.7623352 Z" id="Fill-26" fill="#F5A623"></path>
                    <polygon id="Fill-28" fill="#FBD55D" points="149.439969 87.3645273 165.106958 78.3193795 165.106958 96.2953795 149.439969 105.340527"></polygon>
                    <path d="M165.36315,77.8759375 L149.183048,87.217767 L149.183048,105.783483 L165.36315,96.4428693 L165.36315,77.8759375 Z M164.851252,78.7623352 L164.851252,96.1461875 L149.694945,104.898301 L149.694945,87.513233 L164.851252,78.7623352 Z" id="Fill-30" fill="#F5A623"></path>
                    <polygon id="Fill-32" fill="#FBD55D" points="133.571383 77.8759375 149.160553 68.8648352 164.829974 77.909983 149.210406 86.9052784"></polygon>
                    <path d="M149.160918,68.5690045 L133.05985,77.8755727 L149.211986,87.2003795 L165.342236,77.9108341 L149.160918,68.5690045 Z M149.160918,69.1587205 L164.317225,77.9108341 L149.211986,86.6106636 L134.08243,77.8743568 L149.160918,69.1587205 Z" id="Fill-34" fill="#F5A623"></path>
                    <polygon id="Fill-36" fill="#79E2F5" points="86.2340966 70.7668818 102.179528 87.924575 86.2340966 97.6846773"></polygon>
                    <path d="M85.9776614,70.1162489 L85.9776614,98.1417375 L102.579684,87.9791693 L85.9776614,70.1162489 Z M86.4895591,71.4184875 L101.7784,87.8709534 L86.4895591,97.2285898 L86.4895591,71.4184875 Z" id="Fill-38" fill="#18BECC"></path>
                    <polygon id="Fill-40" fill="#79E2F5" points="69.7950057 88.4284477 85.7392216 70.7795273 85.7221989 97.6961068"></polygon>
                    <path d="M69.3936341,88.4914318 L85.9774182,98.1421023 L69.3936341,88.4914318 Z M85.9956568,70.1166136 L69.3936341,88.4914318 L85.9774182,98.1421023 L85.9956568,70.1166136 Z M85.4825432,71.4456023 L85.4667364,97.2520568 L70.1961341,88.3661932 L85.4825432,71.4456023 Z" id="Fill-42" fill="#18BECC"></path>
                    <polygon id="Fill-44" fill="#79E2F5" points="86.2340966 6.78270568 102.179528 23.9403989 86.2340966 33.7005011"></polygon>
                    <path d="M85.9776614,6.13134318 L85.9776614,34.1568318 L102.579684,23.9954795 L85.9776614,6.13134318 Z M86.4895591,7.43358182 L101.7784,23.8860477 L86.4895591,33.2436841 L86.4895591,7.43358182 Z" id="Fill-46" fill="#18BECC"></path>
                    <polygon id="Fill-48" fill="#79E2F5" points="69.7950057 24.4453659 85.7392216 6.79644545 85.7221989 33.7118091"></polygon>
                    <path d="M69.3936341,24.507742 L85.9774182,34.1571966 L69.3936341,24.507742 Z M85.9956568,6.13170795 L69.3936341,24.507742 L85.9774182,34.1571966 L85.9956568,6.13170795 Z M85.4825432,7.4619125 L85.4667364,33.2671511 L70.1961341,24.3825034 L85.4825432,7.4619125 Z" id="Fill-50" fill="#18BECC"></path>
                </g>
            </g>
        </g>
    </g>
</svg>