<?xml version="1.0" encoding="UTF-8"?>
<svg width="126px" height="80px" viewBox="0 0 126 80" version="1.1" xmlns="http://www.w3.org/2000/svg" xmlns:xlink="http://www.w3.org/1999/xlink">
    <!-- Generator: Sketch 46.2 (44496) - http://www.bohemiancoding.com/sketch -->
    <title>Page 1</title>
    <desc>Created with Sketch.</desc>
    <defs>
        <path d="M0.999946771,1.99192161 C0.999946771,0.986970831 2.33487675,0.168455008 3.97560659,0.168455008 C5.61591952,0.168455008 6.95147486,0.986970831 6.95147486,1.99192161 L6.95147486,2.77362135 L7.80154427,2.77362135 L7.80154427,6.68083574 L0.150085819,6.68083574 L0.150085819,2.77362135 L0.999946771,2.77362135 L0.999946771,1.99192161 Z M1.85022463,1.99192161 L1.85022463,2.77362135 L6.10119701,2.77362135 L6.10119701,1.99192161 C6.10119701,1.2735798 5.1479436,0.689659514 3.97560659,0.689659514 C2.80368649,0.689659514 1.85022463,1.2735798 1.85022463,1.99192161 Z M3.55078034,4.78523529 L3.55078034,5.63885482 L4.40084975,5.63885482 L4.40084975,4.78523529 C4.65370266,4.69447935 4.82588445,4.52837886 4.82588445,4.33616463 C4.82588445,4.04848543 4.44504168,3.81538822 3.97560659,3.81538822 C3.50637995,3.81538822 3.12574564,4.04848543 3.12574564,4.33616463 C3.12574564,4.52837886 3.29792743,4.69447935 3.55078034,4.78523529 Z" id="path-1"></path>
        <path d="M0.999946771,1.99192161 C0.999946771,0.986970831 2.33487675,0.168455008 3.97560659,0.168455008 C5.61591952,0.168455008 6.95147486,0.986970831 6.95147486,1.99192161 L6.95147486,2.77362135 L7.80154427,2.77362135 L7.80154427,6.68083574 L0.150085819,6.68083574 L0.150085819,2.77362135 L0.999946771,2.77362135 L0.999946771,1.99192161 Z M1.85022463,1.99192161 L1.85022463,2.77362135 L6.10119701,2.77362135 L6.10119701,1.99192161 C6.10119701,1.2735798 5.1479436,0.689659514 3.97560659,0.689659514 C2.80368649,0.689659514 1.85022463,1.2735798 1.85022463,1.99192161 Z M3.55078034,4.78523529 L3.55078034,5.63885482 L4.40084975,5.63885482 L4.40084975,4.78523529 C4.65370266,4.69447935 4.82588445,4.52837886 4.82588445,4.33616463 C4.82588445,4.04848543 4.44504168,3.81538822 3.97560659,3.81538822 C3.50637995,3.81538822 3.12574564,4.04848543 3.12574564,4.33616463 C3.12574564,4.52837886 3.29792743,4.69447935 3.55078034,4.78523529 Z" id="path-3"></path>
    </defs>
    <g id="Desktop-App" stroke="none" stroke-width="1" fill="none" fill-rule="evenodd" opacity="0.801743659">
        <g id="Getting-Started---Step-1" transform="translate(-554.000000, -131.000000)">
            <g id="Group" transform="translate(279.000000, 68.000000)">
                <g id="Page-1" transform="translate(275.000000, 63.000000)">
                    <polygon id="Fill-1" fill="#474E5D" points="60.1980198 73.6633663 62.5742574 73.6633663 62.5742574 15.049505 60.1980198 15.049505"></polygon>
                    <polygon id="Fill-2" fill="#474E5D" points="60.990099 64.950495 107.722772 64.950495 107.722772 62.5742574 60.990099 62.5742574"></polygon>
                    <polygon id="Fill-3" fill="#474E5D" points="15.8415842 17.4257426 62.5742574 17.4257426 62.5742574 15.049505 15.8415842 15.049505"></polygon>
                    <polygon id="Fill-7" fill="#24B3C9" points="73.6633663 70.4950495 60.5940594 78.4158416 47.5247525 70.4950495 47.5247525 54.6534653 60.5940594 46.7326733 73.6633663 54.6534653"></polygon>
                    <polygon id="Fill-8" fill="#0399AF" points="60.990099 63.3663366 60.990099 79.2079208 74.4554455 71.2871287 74.4554455 55.4455446"></polygon>
                    <g id="Group-5-Copy" transform="translate(99.009901, 47.524752)">
                        <polygon id="Fill-16" fill="#FFA004" points="13.022035 0 0 8.06627427 0 24.1988228 13.022035 32.2650971 26.0440699 24.1988228 26.0440699 8.06627427"></polygon>
                        <polygon id="Fill-17" fill="#E69E27" points="13.022035 16.0228033 13.022035 32.2650971 26.0440699 24.1439502 26.0440699 7.90165643"></polygon>
                        <polygon id="Fill-18" fill="#F9CA34" points="13.022035 0 0 7.57242075 13.022035 15.1448415 26.0440699 7.57242075"></polygon>
                    </g>
                    <polygon id="Fill-9" fill="#38C7DD" points="47.5247525 54.2574257 60.5940594 61.7821782 73.6633663 54.2574257 60.5940594 46.7326733"></polygon>
                    <polygon id="Fill-13" fill="#24B3C9" points="60.5940594 0 47.5247525 7.92079208 47.5247525 23.7623762 60.5940594 31.6831683 73.6633663 23.7623762 73.6633663 7.92079208"></polygon>
                    <polygon id="Fill-14" fill="#0399AF" points="60.990099 15.049505 60.990099 30.8910891 74.4554455 22.970297 74.4554455 7.12871287"></polygon>
                    <polygon id="Fill-15" fill="#38C7DD" points="60.5940594 0 47.5247525 7.52475248 60.5940594 15.049505 73.6633663 7.52475248"></polygon>
                    <g transform="translate(57.029703, 3.168317)">
                        <path d="M6.62697321,1.91792438 C6.62697321,0.860690797 5.32607327,0 3.72762166,0 C2.12896694,0 0.828473205,0.860690797 0.828473205,1.91792438 L0.828473205,2.73989197 L0,2.73989197 L0,6.84950479 L7.45524331,6.84950479 L7.45524331,2.73989197 L6.62697321,2.73989197 L6.62697321,1.91792438 Z M2.89935156,4.38382715 C2.89935156,4.08102069 3.27042794,3.83584876 3.72762166,3.83584876 C4.18501848,3.83584876 4.55609486,4.08102069 4.55609486,4.38382715 C4.55609486,4.58599831 4.38832853,4.76047787 4.14195981,4.85570994 L4.14195981,5.753548 L3.31348661,5.753548 L3.31348661,4.85570994 C3.06711789,4.76047787 2.89935156,4.58599831 2.89935156,4.38382715 L2.89935156,4.38382715 Z M1.6567433,2.73989197 L1.6567433,1.91792438 C1.6567433,1.16237159 2.58575444,0.548203529 3.72762166,0.548203529 C4.86969197,0.548203529 5.79870311,1.16237159 5.79870311,1.91792438 L5.79870311,2.73989197 L1.6567433,2.73989197 Z" id="Fill-1" fill="#FFFFFF"></path>
                        <g id="Group-6">
                            <mask id="mask-2" fill="white">
                                <use xlink:href="#path-1"></use>
                            </mask>
                            <g id="Clip-4"></g>
                            <polygon id="Fill-3" fill="#FFFFFF" mask="url(#mask-2)" points="-157.798563 835.425538 541.766033 835.425538 541.766033 -508.800052 -157.798563 -508.800052"></polygon>
                            <polygon id="Fill-5" fill="#FFFFFF" mask="url(#mask-2)" points="-2.58272681 8.39428217 10.5341484 8.39428217 10.5341484 -1.54520547 -2.58272681 -1.54520547"></polygon>
                        </g>
                    </g>
                    <g id="Page-1-Copy" transform="translate(57.029703, 49.900990)">
                        <path d="M6.62697321,1.91792438 C6.62697321,0.860690797 5.32607327,0 3.72762166,0 C2.12896694,0 0.828473205,0.860690797 0.828473205,1.91792438 L0.828473205,2.73989197 L0,2.73989197 L0,6.84950479 L7.45524331,6.84950479 L7.45524331,2.73989197 L6.62697321,2.73989197 L6.62697321,1.91792438 Z M2.89935156,4.38382715 C2.89935156,4.08102069 3.27042794,3.83584876 3.72762166,3.83584876 C4.18501848,3.83584876 4.55609486,4.08102069 4.55609486,4.38382715 C4.55609486,4.58599831 4.38832853,4.76047787 4.14195981,4.85570994 L4.14195981,5.753548 L3.31348661,5.753548 L3.31348661,4.85570994 C3.06711789,4.76047787 2.89935156,4.58599831 2.89935156,4.38382715 L2.89935156,4.38382715 Z M1.6567433,2.73989197 L1.6567433,1.91792438 C1.6567433,1.16237159 2.58575444,0.548203529 3.72762166,0.548203529 C4.86969197,0.548203529 5.79870311,1.16237159 5.79870311,1.91792438 L5.79870311,2.73989197 L1.6567433,2.73989197 Z" id="Fill-1" fill="#FFFFFF"></path>
                        <g id="Group-6">
                            <mask id="mask-4" fill="white">
                                <use xlink:href="#path-3"></use>
                            </mask>
                            <g id="Clip-4"></g>
                            <polygon id="Fill-3" fill="#FFFFFF" mask="url(#mask-4)" points="-157.798563 835.425538 541.766033 835.425538 541.766033 -508.800052 -157.798563 -508.800052"></polygon>
                            <polygon id="Fill-5" fill="#FFFFFF" mask="url(#mask-4)" points="-2.58272681 8.39428217 10.5341484 8.39428217 10.5341484 -1.54520547 -2.58272681 -1.54520547"></polygon>
                        </g>
                    </g>
                    <g id="Group-5">
                        <polygon id="Fill-16" fill="#FFA004" points="13.022035 0 0 8.06627427 0 24.1988228 13.022035 32.2650971 26.0440699 24.1988228 26.0440699 8.06627427"></polygon>
                        <polygon id="Fill-17" fill="#E69E27" points="13.022035 16.0228033 13.022035 32.2650971 26.0440699 24.1439502 26.0440699 7.90165643"></polygon>
                        <polygon id="Fill-18" fill="#F9CA34" points="13.022035 0 0 7.57242075 13.022035 15.1448415 26.0440699 7.57242075"></polygon>
                    </g>
                </g>
            </g>
        </g>
    </g>
</svg>