<?xml version="1.0" encoding="UTF-8"?>
<svg width="79px" height="80px" viewBox="0 0 79 80" version="1.1" xmlns="http://www.w3.org/2000/svg" xmlns:xlink="http://www.w3.org/1999/xlink">
    <!-- Generator: Sketch 46.2 (44496) - http://www.bohemiancoding.com/sketch -->
    <title>if_custom_settings_257569</title>
    <desc>Created with Sketch.</desc>
    <defs></defs>
    <g id="Desktop-App" stroke="none" stroke-width="1" fill="none" fill-rule="evenodd">
        <g id="Getting-Started---Step-2" transform="translate(-856.000000, -131.000000)" fill-rule="nonzero">
            <g id="Group" transform="translate(279.000000, 68.000000)">
                <g id="if_custom_settings_257569" transform="translate(577.000000, 63.000000)">
                    <path d="M44.441024,55.6071918 C42.2635945,56.4213164 39.9071249,56.8725219 37.446243,56.8832886 C26.3611474,56.9318213 17.3018828,48.0441984 17.2528559,37.070164 C17.2038291,26.0966265 26.1824419,17.1289991 37.2675375,17.0803007 C48.3531351,17.031768 57.4118977,25.9198878 57.4609246,36.8932596 C57.4726375,39.505912 56.9716597,42.0042722 56.0533678,44.296244 C58.1461297,46.542002 61.0455763,49.6373317 64.2385148,53.0389312 C64.0263439,52.2590943 64.0718569,51.3946149 64.4232441,50.7171441 L66.3003212,46.2145301 C66.7019066,44.9960764 68.0900534,43.9941152 69.3851663,43.988649 L71.6947844,43.9785449 C72.9895626,43.9730788 74.1991713,42.929873 74.3818927,41.6610645 C74.3818927,41.6610645 74.7279254,39.2634139 74.7167145,36.8177274 C74.7060055,34.4815295 74.3845699,32.2902674 74.3845699,32.2902674 C74.1986693,31.0217901 72.9867181,29.9883571 71.6919398,29.9943202 L69.3988872,30.0044243 C68.1041089,30.0098905 66.7164641,29.0175364 66.3158826,27.7985857 L64.4008223,23.2085135 C63.8086511,22.0682422 64.0700163,20.3909634 64.9812805,19.4801047 L66.6058607,17.857653 C67.5176269,16.9472912 67.5865657,15.3954025 66.7594672,14.4091771 L60.0752455,7.81203527 C59.0761345,6.99641996 57.5129634,7.07393985 56.6013645,7.98413606 L54.9841467,9.59913388 C54.0723805,10.5094957 52.3835465,10.77684 51.2308291,10.1926249 L46.5296027,8.28626489 C45.2969029,7.8933649 44.2837364,6.52285291 44.2782146,5.24112438 L44.2680076,2.96306643 C44.2624858,1.6813379 43.2083242,0.487564637 41.9255935,0.310328978 C41.9255935,0.310328978 39.6062705,-0.0101859739 37.191069,0.000249396662 C34.7760348,0.010850408 32.459891,0.351407897 32.459891,0.351407897 C31.1790009,0.540072771 30.1358828,1.74295628 30.1414046,3.0246848 L30.1516116,5.30274276 C30.1571334,6.58447128 29.1566838,7.96376224 27.9274978,8.36759452 L23.2435061,10.3150334 C22.0958085,10.9090213 20.404632,10.6565848 19.4850014,9.75450496 L17.8535608,8.1535866 C16.9339302,7.25100987 15.3699224,7.1874038 14.3781738,8.01163244 L7.753688,14.6674111 C6.93545776,15.6610903 7.0186194,17.2119852 7.93824996,18.1145619 L9.57722036,19.7227684 C10.4968509,20.6253452 10.7734429,22.300305 10.1914787,23.4455455 L8.3204254,28.0516849 C7.93055291,29.2742797 6.55244568,30.2790568 5.25716545,30.2845229 L2.96411282,30.294627 C1.66933457,30.3000931 0.466753631,31.3441271 0.291729329,32.6144264 C0.291729329,32.6144264 -0.0097943743,34.8083389 0.000245260647,37.1445367 C0.0112888591,39.5902232 0.378572171,41.9847266 0.378572171,41.9847266 C0.572839107,43.25221 1.79181812,44.2843179 3.08642904,44.2788517 L5.39654905,44.2695758 C6.6913273,44.2641097 8.08867716,45.2531509 8.50130615,46.4684575 L10.4187091,50.954176 C11.0200832,52.0893125 10.7665825,53.7629471 9.85481627,54.6738059 L8.23759841,56.2888037 C7.32583223,57.1991656 7.26157856,58.7474101 8.09419896,59.7291632 L14.8177425,66.2868825 C15.8215386,67.0968661 17.3882237,67.0145426 18.2999899,66.1041807 L19.9245701,64.4817291 C20.8363363,63.5713672 22.5280148,63.2985568 23.6844134,63.8759807 L28.1843451,65.6806372 C29.4175469,66.0707213 30.4315501,67.43908 30.4375739,68.7211398 L30.4477808,70.9991977 C30.4533026,72.2809263 31.5074643,73.4746995 32.790195,73.6519352 C32.790195,73.6519352 35.109518,73.9724501 37.5247195,73.9620148 C39.939921,73.9514137 42.2563994,73.6108563 42.2563994,73.6108563 C43.5372895,73.4221914 44.5804076,72.2193079 44.5748858,70.9375793 L44.5646788,68.6595214 C44.559157,67.3777929 45.5606106,66.0004896 46.7906332,65.5993076 L51.2738322,63.7552285 C51.4885131,63.6455743 51.7221019,63.5655698 51.9660651,63.5135586 C48.8167989,60.2037241 46.117643,57.3684505 44.441024,55.6071918 Z" id="Shape" fill="#99A1B0"></path>
                    <path d="M78.490566,72.8387527 C69.185282,62.8572568 53.6520025,46.1769038 51.360775,43.5992857 C48.0570983,39.8827624 48.1948206,35.4779573 48.4700994,32.3119933 C48.7453781,29.1460292 45.304145,24.7412241 40.3487958,23.7776626 C35.3934466,22.8141011 26.859142,23.6399399 32.08977,26.668347 C37.3205637,29.6965884 39.660516,31.3484318 38.8346797,33.826114 C38.0088434,36.3037961 36.9075626,39.0569236 34.9804456,40.2957647 C33.0533285,41.5346058 32.3650487,41.5346058 31.1262114,40.708767 C29.8873741,39.8829282 28.9238156,39.1946463 26.1708622,37.4050803 C23.4179089,35.61568 22.5919068,38.0933622 24.2437452,40.708767 C25.8955835,43.3241718 29.3368166,49.9313795 34.2921658,49.6560999 C39.247515,49.3808203 42.459874,50.5634785 44.7535875,52.9597866 C44.7535875,52.9597866 60.004959,69.137974 70.2124812,80 C74.7352731,79.7891899 78.1165118,76.9717586 78.490566,72.8387527 Z" id="Shape" fill="#79E2F5"></path>
                </g>
            </g>
        </g>
    </g>
</svg>