<?xml version="1.0" encoding="UTF-8"?>
<svg width="36px" height="23px" viewBox="0 0 36 23" version="1.1" xmlns="http://www.w3.org/2000/svg" xmlns:xlink="http://www.w3.org/1999/xlink">
    <!-- Generator: Sketch 46.2 (44496) - http://www.bohemiancoding.com/sketch -->
    <title>Shape</title>
    <desc>Created with Sketch.</desc>
    <defs></defs>
    <g id="Desktop-App" stroke="none" stroke-width="1" fill="none" fill-rule="evenodd">
        <g id="MET-Manager---Purchase---Step-1" transform="translate(-637.000000, -256.000000)" fill-rule="nonzero" fill="#FFFFFF">
            <g id="Group-5" transform="translate(361.000000, 207.000000)">
                <g id="Group" transform="translate(265.000000, 0.000000)">
                    <g id="input-group-lg" transform="translate(0.000000, 34.000000)">
                        <g id="if_48.Dashboard_290102" transform="translate(11.596035, 15.000000)">
                            <path d="M34.9166667,18.8706412 C34.9166667,18.8796777 34.9216667,18.8862497 34.9216667,18.8944647 C34.9216667,18.8985722 34.9191667,18.9026797 34.9191667,18.9076087 C34.92,18.9117162 34.9216667,18.9158237 34.9216667,18.9207527 C34.9216667,19.3742198 34.5491667,19.7422511 34.0883333,19.7422511 C34.1008333,19.7414296 26.6666667,19.7159632 26.6666667,19.7159632 C26.2058333,19.7159632 25.8333333,19.3479319 25.8333333,18.8944647 C25.8333333,18.4401761 26.2058333,18.0729662 26.6666667,18.0729662 L33.2883333,18.0729662 C33.3041667,17.7985857 33.3333333,17.5291343 33.3333333,17.2514678 C33.3333333,8.63148438 26.2441667,1.64299693 17.5,1.64299693 C8.75583333,1.64299693 1.66666667,8.63148438 1.66666667,17.2514678 C1.66666667,17.5291343 1.69583333,17.7985857 1.71083333,18.0729662 L8.33333333,18.0729662 C8.79416667,18.0729662 9.16666667,18.4401761 9.16666667,18.8944647 C9.16666667,19.3479319 8.79416667,19.7159632 8.33333333,19.7159632 C8.33333333,19.7159632 0.9,19.7414296 0.911666667,19.7414296 C0.450833333,19.7414296 0.0783333333,19.3733983 0.0783333333,18.9199312 C0.0783333333,18.9150022 0.08,18.9108947 0.0808333333,18.9067872 C0.0808333333,18.9018582 0.0783333333,18.8977507 0.0783333333,18.8936432 C0.0783333333,18.8846067 0.0833333333,18.8780347 0.0833333333,18.8706412 C0.0325,18.3366672 0,17.7977643 0,17.2514678 C0,7.72290707 7.835,0 17.5,0 C27.165,0 35,7.72290707 35,17.2514678 C35,17.7977643 34.9675,18.3366672 34.9166667,18.8706412 Z M12.1025,9.14163492 C12.43,8.96419125 12.8233333,9.02333914 13.0933333,9.25089422 L13.0516667,9.18270985 C20.3633333,14.45673 21.8658333,16.882615 21.8933333,16.9277974 C23.0875,18.8640693 22.3775,21.3400656 20.3108333,22.4573035 C18.2441667,23.5745415 15.6,22.9115922 14.4066667,20.9753203 C14.3775,20.9317809 12.8866667,18.4993239 11.6641667,9.93273794 L11.7066667,10.0001008 C11.6325,9.66821544 11.7758333,9.31825709 12.1025,9.14163492 Z M15.905,20.1669658 C16.3675,20.9153509 17.2291667,21.3811406 18.1541667,21.3811406 C18.6058333,21.3811406 19.0533333,21.2685953 19.4475,21.0550057 C20.0475,20.7305138 20.4766667,20.2080407 20.6558333,19.5812374 C20.8358333,18.9536126 20.7433333,18.2996998 20.4033333,17.7476528 C20.3891667,17.7271154 19.0933333,15.7875575 13.685,11.7112821 C14.7525,18.1312926 15.8958333,20.1505359 15.905,20.1669658 Z" id="Shape"></path>
                        </g>
                    </g>
                </g>
            </g>
        </g>
    </g>
</svg>