<svg id="Layer_1" data-name="Layer 1" xmlns="http://www.w3.org/2000/svg" xmlns:xlink="http://www.w3.org/1999/xlink" viewBox="0 0 5907.73 3642.09"><defs><style>.cls-1,.cls-9{fill:none;}.cls-2,.cls-3,.cls-4,.cls-5,.cls-6,.cls-7,.cls-8{fill:#99a1b0;}.cls-3{clip-path:url(#clip-path);}.cls-4{clip-path:url(#clip-path-2);}.cls-5{clip-path:url(#clip-path-3);}.cls-6{clip-path:url(#clip-path-4);}.cls-7{clip-path:url(#clip-path-5);}.cls-8{clip-path:url(#clip-path-6);}.cls-9{clip-rule:evenodd;}.cls-10{clip-path:url(#clip-path-7);}.cls-11{clip-path:url(#clip-path-8);}.cls-12{clip-path:url(#clip-path-9);}.cls-13{clip-path:url(#clip-path-11);}.cls-14{clip-path:url(#clip-path-12);}.cls-15{clip-path:url(#clip-path-13);}.cls-16{clip-path:url(#clip-path-15);}.cls-17{clip-path:url(#clip-path-16);}.cls-18{clip-path:url(#clip-path-17);}.cls-19{clip-path:url(#clip-path-19);}.cls-20{clip-path:url(#clip-path-21);}.cls-21{clip-path:url(#clip-path-22);}.cls-22{clip-path:url(#clip-path-23);}.cls-23{clip-path:url(#clip-path-24);}.cls-24{clip-path:url(#clip-path-25);}.cls-25{fill:#fff;}.cls-26{fill:#3f414c;}.cls-27{fill:#f5a623;}</style><clipPath id="clip-path"><polygon class="cls-2" points="868.96 162.92 868.96 131.5 899.68 144.95 868.96 162.92"/></clipPath><clipPath id="clip-path-2"><polygon class="cls-3" points="868.96 194.51 868.96 169.24 899.45 151.39 868.96 194.51"/></clipPath><clipPath id="clip-path-3"><polygon class="cls-4" points="868.96 92.43 899.08 142.53 868.96 129.34 868.96 92.43"/></clipPath><clipPath id="clip-path-4"><polygon class="cls-5" points="866.99 129.34 837.28 142.35 866.99 92.44 866.99 129.34"/></clipPath><clipPath id="clip-path-5"><polygon class="cls-6" points="866.99 162.92 836.29 144.94 866.99 131.5 866.99 162.92"/></clipPath><clipPath id="clip-path-6"><polygon class="cls-7" points="866.99 194.51 836.5 151.39 866.99 169.24 866.99 194.51"/></clipPath><clipPath id="clip-path-7" transform="translate(2271.79 1527.9)"><path class="cls-1" d="M267.32,425.56C263.91,441,251.21,451,235,451h-8.39L223.07,467,222,471.81H210.79L209,479.66h18.69l4.57-20.79h13.35c12.78,0,23.46-7.62,26.32-20.59,1.66-7.54-.39-13-4-16.45A30.62,30.62,0,0,1,267.32,425.56Z"/></clipPath><clipPath id="clip-path-8" transform="translate(2271.79 1527.9)"><rect class="cls-1" x="-2215.07" y="-1228.43" width="5851.01" height="3342.62"/></clipPath><clipPath id="clip-path-9" transform="translate(2271.79 1527.9)"><path class="cls-1" d="M228,416.91l.3-1.26h9.15a6.82,6.82,0,0,1,4.07,1.26,6.5,6.5,0,0,1,2.22,7.32,11.18,11.18,0,0,1-3.26,5.46,12.48,12.48,0,0,1-1.84,1.42,10.58,10.58,0,0,1-5.59,1.72h-8.77Zm-11,48.71,4.58-20.78H235l.47,0a26.81,26.81,0,0,0,19.24-8,26.09,26.09,0,0,0,6.61-12.61,22.77,22.77,0,0,0,.55-6.12,15.55,15.55,0,0,0-1.95-6.92c-3.17-5.65-9.68-8.31-15.57-8.31H212.45l-14.12,62.74H217Z"/></clipPath><clipPath id="clip-path-11" transform="translate(2271.79 1527.9)"><path class="cls-2" d="M237.72,422.79l0-.11,0-.12a1.73,1.73,0,0,0,.08-.67,1.25,1.25,0,0,0-.42-.06h-4.25l-1.12,4.8h1A5.45,5.45,0,0,0,237.72,422.79Z"/></clipPath><clipPath id="clip-path-12" transform="translate(2271.79 1527.9)"><rect class="cls-2" x="-2215.07" y="-1228.43" width="5851.01" height="3342.62"/></clipPath><clipPath id="clip-path-13" transform="translate(2271.79 1527.9)"><path class="cls-1" d="M278,439.6C274.59,455.06,261.89,465,245.64,465h-8.38L233.75,481l-1.07,4.86H201.29l1.7-7.54,1.46-6.49H190.61l1.7-7.54,14.12-62.75,1.09-4.83h36.8a24.49,24.49,0,0,1,19.07,8.65,20.94,20.94,0,0,1,4.09,8.56,22.13,22.13,0,0,1,6.58,5.47C277.07,423.12,280.19,429.67,278,439.6Zm-43.6-73.38a76,76,0,1,0,76,76A76,76,0,0,0,234.4,366.23Z"/></clipPath><clipPath id="clip-path-15" transform="translate(2271.79 1527.9)"><path class="cls-1" d="M1155.08,444.29a30.46,30.46,0,0,0-10.44-2.4c-4.71-.31-10.76,0-10.76,0v20.4s6.31.13,10.54-.18,8.58-1.38,10.76-2.58,4.8-3.07,4.8-7.73A8,8,0,0,0,1155.08,444.29Z"/></clipPath><clipPath id="clip-path-16" transform="translate(2271.79 1527.9)"><rect class="cls-1" x="-1656.96" y="-1232.97" width="5851.01" height="3342.62"/></clipPath><clipPath id="clip-path-17" transform="translate(2271.79 1527.9)"><path class="cls-1" d="M1141.79,432.42a23.18,23.18,0,0,0,9.82-2.4,7.45,7.45,0,0,0,4.09-7.24c-.09-3.47-2.4-6.4-6.31-7.6a30.26,30.26,0,0,0-9.51-1.33c-3,0-6,.22-6,.22v18.36S1138.32,432.55,1141.79,432.42Z"/></clipPath><clipPath id="clip-path-19" transform="translate(2271.79 1527.9)"><path class="cls-1" d="M1171.31,467.76c-5.74,4-11.87,4.71-14.58,5.07-1.34.18-3.63.36-6.09.51v15.45h-9.51v-15.2h-7.24v15.2h-9.51v-15.2h-18.71l2-11.43h5.69c1.91,0,2.71-.18,3.51-.93a3.86,3.86,0,0,0,1-2.85V419c0-2.47-.2-3.13-1.33-4.4s-3.8-1.44-5.3-1.44h-5.5V403.3h18.71V388.05h9.51V403.3h7.25V388.05h9.51v15.43c7.09.44,12.37,1.79,17,5.2,6,4.4,5.64,12,5.51,13.87a17.18,17.18,0,0,1-2.53,7.6c-1.6,2.27-5.51,4.54-5.51,4.54a23,23,0,0,1,7.87,3.42c3.24,2.45,5.65,6.76,5.51,13.07S1177,463.75,1171.31,467.76Zm-31.38-106.55A77.08,77.08,0,1,0,1217,438.28,77.08,77.08,0,0,0,1139.92,361.21Z"/></clipPath><clipPath id="clip-path-21" transform="translate(2271.79 1527.9)"><circle class="cls-8" cx="867.98" cy="143.41" r="77.14"/></clipPath><clipPath id="clip-path-22" transform="translate(2271.79 1527.9)"><rect class="cls-2" x="-2271.79" y="-1527.9" width="5851.01" height="3342.62"/></clipPath><clipPath id="clip-path-23" transform="translate(2271.79 1527.9)"><path class="cls-9" d="M480.37,64a77.14,77.14,0,1,0,77.14,77.14A77.36,77.36,0,0,0,480.37,64Z"/></clipPath><clipPath id="clip-path-24" transform="translate(2271.79 1527.9)"><rect class="cls-1" x="-1625.2" y="-1530.17" width="5851.01" height="3342.62"/></clipPath><clipPath id="clip-path-25" transform="translate(2271.79 1527.9)"><path class="cls-1" d="M487.79,159.38h32v4.4h-32ZM442.08,155H455.8v8.79H442.08Zm0-30.77h86.85V133H442.08Zm.24-8.79a4.78,4.78,0,0,0-4.81,4.76V167.8a4.78,4.78,0,0,0,4.81,4.76h81.8a4.78,4.78,0,0,0,4.81-4.76V120.19a4.78,4.78,0,0,0-4.81-4.76Z"/></clipPath></defs><title>GetChi</title><g class="cls-10"><g class="cls-11"><rect class="cls-2" x="2452.24" y="1921.16" width="120.66" height="114.97"/></g></g><g class="cls-12"><g class="cls-11"><rect class="cls-2" x="2441.56" y="1902.21" width="120.66" height="119.88"/></g></g><path class="cls-2" d="M237.72,422.79l0-.11,0-.12a1.73,1.73,0,0,0,.08-.67,1.25,1.25,0,0,0-.42-.06h-4.25l-1.12,4.8h1A5.45,5.45,0,0,0,237.72,422.79Z" transform="translate(2271.79 1527.9)"/><g class="cls-13"><rect class="cls-2" x="56.72" y="299.47" width="5851.01" height="3342.62"/><g class="cls-14"><rect class="cls-2" x="2475.29" y="1921.17" width="62.94" height="61.94"/></g></g><g class="cls-15"><g class="cls-11"><rect class="cls-2" x="2401.64" y="1865.56" width="209.1" height="209.1"/></g></g><g class="cls-16"><g class="cls-17"><rect class="cls-2" x="3377.1" y="1941.08" width="83.23" height="77.71"/></g></g><g class="cls-18"><g class="cls-17"><rect class="cls-2" x="3377.1" y="1913.16" width="78.97" height="75.78"/></g></g><g class="cls-19"><g class="cls-17"><rect class="cls-2" x="3306.07" y="1860.54" width="211.29" height="211.3"/></g></g><polygon class="cls-2" points="3140.75 1690.82 3140.75 1659.4 3171.47 1672.85 3140.75 1690.82"/><polygon class="cls-2" points="3140.75 1722.41 3140.75 1697.14 3171.24 1679.29 3140.75 1722.41"/><polygon class="cls-2" points="3140.75 1620.33 3170.87 1670.43 3140.75 1657.24 3140.75 1620.33"/><polygon class="cls-2" points="3138.78 1657.24 3109.07 1670.25 3138.78 1620.35 3138.78 1657.24"/><polygon class="cls-2" points="3138.78 1690.82 3108.08 1672.84 3138.78 1659.4 3138.78 1690.82"/><polygon class="cls-2" points="3138.78 1722.41 3108.29 1679.29 3138.78 1697.14 3138.78 1722.41"/><circle class="cls-2" cx="3139.77" cy="1671.31" r="77.14"/><g class="cls-20"><rect class="cls-2" width="5851.01" height="3342.62"/><g class="cls-21"><rect class="cls-2" x="3034.07" y="1565.6" width="211.41" height="211.41"/></g></g><g class="cls-22"><g class="cls-23"><rect class="cls-2" x="2646.45" y="1563.33" width="211.41" height="211.41"/></g></g><g class="cls-24"><g class="cls-23"><rect class="cls-25" x="2680.73" y="1614.76" width="148.56" height="114.28"/></g></g><polygon class="cls-26" points="3273.64 1998.04 3111.49 2036.87 3030.39 2056.23 2989.81 2065.74 2949.21 2075.18 2949.19 2075.11 2989.7 2065.27 3030.22 2055.5 3111.35 2036.29 3273.62 1997.97 3273.64 1998.04"/><polygon class="cls-26" points="3094.43 1771.15 3022.07 1923.27 2985.84 1999.3 2967.57 2037.25 2949.23 2075.16 2949.17 2075.13 2967.13 2037.04 2985.16 1998.98 3021.53 1923.01 3094.37 1771.12 3094.43 1771.15"/><polygon class="cls-26" points="2804.03 1771.12 2876.87 1923.01 2913.24 1998.98 2931.27 2037.04 2949.23 2075.13 2949.17 2075.16 2930.83 2037.25 2912.56 1999.3 2876.33 1923.27 2803.97 1771.15 2804.03 1771.12"/><polygon class="cls-26" points="2624.78 1997.97 2787.05 2036.29 2868.18 2055.5 2908.7 2065.27 2949.21 2075.11 2949.19 2075.18 2908.59 2065.74 2868.01 2056.23 2786.91 2036.87 2624.76 1998.04 2624.78 1997.97"/><path class="cls-27" d="M677.41,732.21c-102,0-185-83-185-185s83-185,185-185,185,83,185,185S779.4,732.21,677.41,732.21Z" transform="translate(2271.79 1527.9)"/><path class="cls-25" d="M677.41,370.28a177,177,0,1,1-177,177,177,177,0,0,1,177-177m0-16a192.41,192.41,0,1,0,75.11,15.17,191.77,191.77,0,0,0-75.11-15.17Z" transform="translate(2271.79 1527.9)"/><path class="cls-25" d="M728.91,595.56a67.37,67.37,0,1,1,0-96.64l17.64-17.64a92.27,92.27,0,0,0-38.64-22.66V435.48H691.66v19.94a93.07,93.07,0,0,0-30.56,1.86V435.48H644.84v27.21a92.36,92.36,0,0,0,0,169.11V659H661.1V637.2a93,93,0,0,0,30.56,1.86V659h16.25V635.87a92.26,92.26,0,0,0,38.64-22.66Z" transform="translate(2271.79 1527.9)"/><circle class="cls-25" cx="2951.39" cy="2075.15" r="23.01"/></svg>