
<svg width="300px" height="55px" viewBox="0 0 300 55" version="1.1" xmlns="http://www.w3.org/2000/svg" xmlns:xlink="http://www.w3.org/1999/xlink">
    <!-- Generator: Sketch 49.1 (51147) - http://www.bohemiancoding.com/sketch -->
    <desc>Created with Sketch.</desc>
    <defs></defs>
    <g id="00---First-Launch" stroke="none" stroke-width="1" fill="none" fill-rule="evenodd">
        <g transform="translate(-471.000000, -184.000000)" fill="#462B78" fill-rule="nonzero" id="Intro-1">
            <g transform="translate(15.000000, 169.000000)">
                <g id="ORCHID_HLOGO_WHITE_ONLY_16PT" transform="translate(456.000000, 15.000000)">
                    <g id="logo-text" transform="translate(66.541353, 1.127820)">
                        <path d="M37.443609,19.1729323 C37.443609,9.02255639 28.9849624,0.563909774 18.8345865,0.563909774 C8.68421053,0.563909774 0.22556391,9.02255639 0.22556391,19.1729323 L0.22556391,33.7218045 C0.22556391,43.8721805 8.68421053,52.3308271 18.8345865,52.3308271 C28.9849624,52.3308271 37.443609,43.8721805 37.443609,33.7218045 L37.443609,19.1729323 Z M29.3233083,34.0601504 C29.3233083,39.8120301 24.5864662,44.887218 18.4962406,44.887218 C12.406015,44.887218 7.66917293,40.1503759 7.66917293,34.0601504 L7.66917293,19.1729323 C7.66917293,13.4210526 12.406015,8.34586466 18.4962406,8.34586466 C24.5864662,8.34586466 29.3233083,13.4210526 29.3233083,19.1729323 L29.3233083,34.0601504 Z" id="Shape"></path>
                        <path d="M106.804511,0.563909774 C96.6541353,0.563909774 88.1954887,9.02255639 88.1954887,19.1729323 L88.1954887,33.7218045 C88.1954887,43.8721805 96.6541353,52.3308271 106.804511,52.3308271 C116.954887,52.3308271 125.413534,44.2105263 125.413534,34.0601504 L117.293233,34.0601504 C117.293233,39.8120301 112.556391,44.5488722 106.466165,44.5488722 C100.714286,44.5488722 95.6390977,39.8120301 95.6390977,33.7218045 L95.6390977,19.1729323 C95.6390977,13.4210526 100.37594,8.34586466 106.466165,8.34586466 C112.218045,8.34586466 116.954887,13.0827068 117.293233,18.8345865 L125.075188,18.8345865 C125.075188,9.02255639 116.954887,0.563909774 106.804511,0.563909774 Z" id="Shape"></path>
                        <path d="M64.8496241,48.2706767 C67.2180451,50.6390977 70.6015038,52.3308271 74.3233083,52.3308271 L80.7518797,52.3308271 L80.7518797,44.5488722 L74.3233083,44.5488722 C72.9699248,44.5488722 71.6165414,43.8721805 70.6015038,42.8571429 L65.5263158,37.7819549 L65.8646617,37.7819549 C75,36.4285714 81.7669173,28.6466165 81.7669173,19.5112782 C81.7669173,9.36090226 73.3082707,0.902255639 63.1578947,0.902255639 C53.0075188,0.902255639 44.2105263,9.02255639 44.2105263,19.1729323 L44.2105263,52.3308271 L51.9924812,52.3308271 L51.9924812,19.1729323 C51.9924812,13.4210526 56.7293233,8.34586466 62.8195489,8.34586466 C68.9097744,8.34586466 73.3082707,13.4210526 73.3082707,19.1729323 C73.3082707,24.924812 68.5714286,30 62.481203,30 L60.112782,30 C57.0676692,30 54.3609023,32.7067669 54.3609023,35.7518797 C54.3609023,37.443609 55.037594,38.7969925 56.0526316,39.8120301 L64.8496241,48.2706767 Z" id="Shape"></path>
                        <path d="M227.255639,46.9172932 C230.639098,43.5338346 232.669173,38.7969925 232.669173,34.0601504 L232.669173,19.8496241 C232.669173,9.69924812 224.210526,1.2406015 214.06015,1.2406015 L201.203008,1.2406015 C198.157895,1.2406015 195.451128,3.94736842 195.451128,6.9924812 L195.451128,46.5789474 C195.451128,49.6240602 198.157895,52.3308271 201.203008,52.3308271 L214.06015,52.3308271 C219.135338,51.9924812 223.87218,50.3007519 227.255639,46.9172932 Z M203.571429,44.2105263 L203.571429,9.02255639 L214.398496,9.02255639 C220.150376,9.02255639 225.225564,13.7593985 225.225564,19.8496241 L225.225564,34.0601504 C225.225564,39.8120301 220.488722,44.5488722 214.398496,44.5488722 L203.571429,44.2105263 Z" id="Shape"></path>
                        <path d="M142.669173,30.6766917 L158.233083,30.6766917 C159.586466,30.6766917 160.93985,31.6917293 160.93985,33.0451128 L160.93985,51.6541353 L168.721805,51.6541353 L168.721805,1.57894737 L161.278195,1.57894737 L161.278195,23.2330827 L160.93985,23.2330827 C159.924812,22.8947368 159.24812,22.8947368 158.233083,22.8947368 L142.669173,22.8947368 C140.977444,22.8947368 139.62406,21.5413534 139.62406,19.8496241 L139.62406,1.57894737 L131.842105,1.57894737 L131.842105,51.9924812 L139.62406,51.9924812 L139.62406,30.3383459 L139.962406,30.3383459 C140.977444,30.6766917 141.992481,30.6766917 142.669173,30.6766917 Z" id="Shape"></path>
                        <path d="M188.007519,51.9924812 L188.007519,6.31578947 C188.007519,3.27067669 185.300752,0.563909774 182.255639,0.563909774 C180.56391,0.563909774 179.210526,1.2406015 178.195489,2.2556391 L173.120301,7.33082707 L177.857143,13.7593985 L180.225564,11.3909774 L180.225564,51.6541353 L188.007519,51.6541353 L188.007519,51.9924812 Z" id="Shape"></path>
                    </g>
                    <g id="logo-symbol">
                        <rect id="Rectangle-path" transform="translate(45.101691, 10.234133) rotate(-45.000000) translate(-45.101691, -10.234133) " x="36.3047834" y="5.32816547" width="17.5938162" height="9.81193598"></rect>
                        <path d="M17.3684211,1.01503759 L0.112781955,1.01503759 L0.112781955,10.8270677 L17.0300752,10.8270677 L26.1654135,19.962406 L32.9323308,13.1954887 L23.4586466,3.72180451 C22.1052632,2.03007519 19.7368421,1.01503759 17.3684211,1.01503759 Z" id="Shape"></path>
                        <rect id="Rectangle-path" transform="translate(10.213945, 45.067382) rotate(-45.000000) translate(-10.213945, -45.067382) " x="1.41703737" y="40.1614136" width="17.5938162" height="9.81193598"></rect>
                        <path d="M38.0075188,44.6616541 L28.8721805,35.5263158 L22.1052632,42.2932331 L31.5789474,51.7669173 C33.2706767,53.4586466 35.6390977,54.4736842 38.0075188,54.4736842 L55.2631579,54.4736842 L55.2631579,44.6616541 L38.0075188,44.6616541 Z" id="Shape"></path>
                        <path d="M31.9172932,23.0075188 L23.4586466,23.0075188 L14.3233083,13.8721805 L7.55639098,20.6390977 L17.0300752,30.112782 C18.7218045,31.8045113 21.0902256,32.8195489 23.4586466,32.8195489 L31.5789474,32.8195489 L40.7142857,41.9548872 L47.481203,35.1879699 L38.3458647,25.3759398 C36.6541353,24.0225564 33.9473684,23.0075188 31.9172932,23.0075188 Z" id="Shape"></path>
                    </g>
                </g>
            </g>
        </g>
    </g>
</svg>
