<?xml version="1.0" encoding="UTF-8"?>
<svg width="75px" height="107px" viewBox="0 0 75 107" version="1.1" xmlns="http://www.w3.org/2000/svg" xmlns:xlink="http://www.w3.org/1999/xlink">
    <!-- Generator: Sketch 47 (45396) - http://www.bohemiancoding.com/sketch -->
    <title>Page 1</title>
    <desc>Created with Sketch.</desc>
    <defs></defs>
    <g id="Getting-Started" stroke="none" stroke-width="1" fill="none" fill-rule="evenodd">
        <g id="Getting-Started---Step-1" transform="translate(-862.000000, -123.000000)">
            <g id="Page-1" transform="translate(862.000000, 123.000000)">
                <path d="M37.4079509,14.3442417 C25.025986,14.3442417 14.9524991,24.4177285 14.9524991,36.7996934 C14.9524991,49.181189 25.025986,59.2546759 37.4079509,59.2546759 C49.7899158,59.2546759 59.8634026,49.181189 59.8634026,36.7996934 C59.8634026,24.4177285 49.7899158,14.3442417 37.4079509,14.3442417 M37.4079509,105.473514 C32.5784026,98.9892197 1.0758193,55.967711 1.0758193,37.4079039 C1.0758193,17.3740311 17.3740781,1.07577237 37.4079509,1.07577237 C57.4418237,1.07577237 73.7405518,17.3740311 73.7405518,37.4079039 C73.7405518,55.9695882 42.2374991,98.9892197 37.4079509,105.473514" id="Fill-1" fill="#79E2F5"></path>
                <path d="M37.4079509,58.4823518 C25.4328675,58.4823518 15.724964,48.7744482 15.724964,36.7993649 C15.724964,24.8242816 25.4328675,15.1168474 37.4079509,15.1168474 C49.3830342,15.1168474 59.0909377,24.8242816 59.0909377,36.7993649 C59.0909377,48.7744482 49.3830342,58.4823518 37.4079509,58.4823518 M37.4079509,0.302978947 C16.9155737,0.302978947 0.303354386,16.9156675 0.303354386,37.4080447 C0.303354386,57.9004219 37.4079509,106.761409 37.4079509,106.761409 C37.4079509,106.761409 74.5130167,57.9004219 74.5130167,37.4080447 C74.5130167,16.9156675 57.9007974,0.302978947 37.4079509,0.302978947 M37.4079509,60.0272816 C50.2160386,60.0272816 60.6358675,49.6069833 60.6358675,36.7993649 C60.6358675,23.9917465 50.2160386,13.5719175 37.4079509,13.5719175 C24.6003325,13.5719175 14.1805035,23.9917465 14.1805035,36.7993649 C14.1805035,49.6069833 24.6003325,60.0272816 37.4079509,60.0272816 M37.4079509,1.84790877 C57.0161702,1.84790877 72.9680868,17.8002947 72.9680868,37.4080447 C72.9680868,55.0696149 43.8110561,95.5099833 37.4079509,104.176983 C31.0048456,95.5099833 1.84781491,55.0696149 1.84781491,37.4080447 C1.84781491,17.8002947 17.8002009,1.84790877 37.4079509,1.84790877" id="Fill-3" fill="#18BECC"></path>
                <path d="M37.7173123,45.8497816 C32.8591368,45.8497816 28.9071763,41.8973518 28.9071763,37.0396456 C28.9071763,32.1814702 32.8591368,28.2290404 37.7173123,28.2290404 C42.5754877,28.2290404 46.5274482,32.1814702 46.5274482,37.0396456 C46.5274482,41.8973518 42.5754877,45.8497816 37.7173123,45.8497816" id="Fill-5" fill="#79E2F5"></path>
                <path d="M37.7173123,27.6113031 C32.5099789,27.6113031 28.2891105,31.8326408 28.2891105,37.0395048 C28.2891105,42.2463689 32.5099789,46.4677066 37.7173123,46.4677066 C42.9241763,46.4677066 47.145514,42.2463689 47.145514,37.0395048 C47.145514,31.8326408 42.9241763,27.6113031 37.7173123,27.6113031 M37.7173123,28.8469654 C42.2343079,28.8469654 45.9098518,32.5220399 45.9098518,37.0395048 C45.9098518,41.5565004 42.2343079,45.231575 37.7173123,45.231575 C33.1998474,45.231575 29.5247728,41.5565004 29.5247728,37.0395048 C29.5247728,32.5220399 33.1998474,28.8469654 37.7173123,28.8469654" id="Fill-7" fill="#18BECC"></path>
            </g>
        </g>
    </g>
</svg>