<?xml version="1.0" encoding="UTF-8"?>
<svg width="20px" height="18px" viewBox="0 0 20 18" version="1.1" xmlns="http://www.w3.org/2000/svg" xmlns:xlink="http://www.w3.org/1999/xlink">
    <!-- Generator: Sketch 46.2 (44496) - http://www.bohemiancoding.com/sketch -->
    <title>if_business-coins-money-stack-salary-glyph_763193</title>
    <desc>Created with Sketch.</desc>
    <defs></defs>
    <g id="Node" stroke="none" stroke-width="1" fill="none" fill-rule="evenodd">
        <g id="Desktop" transform="translate(-31.000000, -237.000000)" fill-rule="nonzero" fill="#FFFFFF">
            <g id="side-nav" transform="translate(0.000000, 33.000000)">
                <g id="list" transform="translate(28.000000, 75.000000)">
                    <g id="labels">
                        <g id="Group-6-Copy" transform="translate(3.177966, 129.000000)">
                            <g id="if_business-coins-money-stack-salary-glyph_763193">
                                <path d="M7.59218317,5.14292279 L8.91892195,10.9680032 L12.3944573,5.14292279 L13.6795729,5.14292279 L12.3632399,12.2941176 L11.3902981,12.2941176 L11.9105878,9.46507353 L12.5297326,6.58691406 L9.09582045,12.2941176 L8.34660326,12.2941176 L6.99384999,6.47394876 L6.52558925,9.55839269 L6.02090822,12.2941176 L5.04276356,12.2941176 L6.35909654,5.14292279 L7.59218317,5.14292279 Z M18.9431705,8.94117647 C18.9431705,4.00310106 14.7025973,0 9.47158524,0 C4.24057316,0 0,4.00310106 0,8.94117647 C0,13.8792519 4.24057316,17.8823529 9.47158524,17.8823529 C14.7025973,17.8823529 18.9431705,13.8792519 18.9431705,8.94117647 Z" id="business-coins-money-stack-salary-glyph"></path>
                            </g>
                        </g>
                    </g>
                </g>
            </g>
        </g>
    </g>
</svg>