<?xml version="1.0" encoding="UTF-8"?>
<svg width="155px" height="122px" viewBox="0 0 155 122" version="1.1" xmlns="http://www.w3.org/2000/svg" xmlns:xlink="http://www.w3.org/1999/xlink">
    <!-- Generator: Sketch 47 (45396) - http://www.bohemiancoding.com/sketch -->
    <title>ORCHID_HLOGO_COLOR_ONLY_16PT</title>
    <desc>Created with Sketch.</desc>
    <defs></defs>
    <g id="05---About" stroke="none" stroke-width="1" fill="none" fill-rule="evenodd">
        <g transform="translate(-807.000000, -137.000000)" id="ORCHID_HLOGO_COLOR_ONLY_16PT" fill-rule="nonzero">
            <g transform="translate(807.000000, 137.000000)">
                <rect id="Rectangle-path" fill="#18BECC" transform="translate(98.500000, 12.000000) rotate(-45.000000) translate(-98.500000, -12.000000) " x="88" y="6" width="21" height="12"></rect>
                <path d="M45,0 L65.8163265,0 C68.6734694,0 71.5306122,1.23214286 73.5714286,3.28571429 L85,14.7857143 L76.4285714,23 L65.4081633,11.9107143 L45,11.9107143 L45,0 Z" id="Shape" fill="#18BECC"></path>
                <rect id="Rectangle-path" fill="#18BECC" transform="translate(57.500000, 54.000000) rotate(-45.000000) translate(-57.500000, -54.000000) " x="47" y="48" width="21" height="12"></rect>
                <path d="M111,65 L90.1836735,65 C87.3265306,65 84.4693878,63.7894737 82.4285714,61.7719298 L71,50.4736842 L79.5714286,42 L90.5918367,52.8947368 L111,52.8947368 L111,65 Z" id="Shape" fill="#18BECC"></path>
                <path d="M82.6386555,37.939759 L93.5294118,49 L102,40.3975904 L90.7058824,28.9277108 C88.6890756,26.8795181 85.8655462,25.6506024 83.0420168,25.6506024 L73.3613445,25.6506024 L62.4705882,15 L54,23.6024096 L65.2941176,35.0722892 C67.3109244,37.1204819 70.1344538,38.3493976 72.9579832,38.3493976 L82.6386555,38.3493976 L82.6386555,37.939759 Z" id="Shape" fill="#18BECC"></path>
                <path d="M12.5,87 C5.68181818,87 0,92.5555556 0,99.2222222 L0,108.777778 C0,115.444444 5.68181818,121 12.5,121 C19.3181818,121 25,115.444444 25,108.777778 L25,99 C25,92.3333333 19.3181818,87 12.5,87 Z M19.5454545,108.555556 C19.5454545,112.333333 16.3636364,115.444444 12.5,115.444444 C8.63636364,115.444444 5.45454545,112.333333 5.45454545,108.555556 L5.45454545,99 C5.45454545,95.2222222 8.63636364,92.1111111 12.5,92.1111111 C16.3636364,92.1111111 19.5454545,95.2222222 19.5454545,99 L19.5454545,108.555556 Z" id="Shape" fill="#F5A623"></path>
                <path d="M71.5,92.3333333 C75.3636364,92.3333333 78.5454545,95.4444444 78.5454545,99.2222222 L84,99.2222222 C84,92.5555556 78.3181818,87 71.5,87 C64.6818182,87 59,92.5555556 59,99.2222222 L59,108.777778 C59,115.444444 64.6818182,121 71.5,121 C78.3181818,121 84,115.444444 84,108.777778 L78.5454545,108.777778 C78.5454545,112.555556 75.3636364,115.666667 71.5,115.666667 C67.6363636,115.666667 64.4545455,112.555556 64.4545455,108.777778 L64.4545455,99.2222222 C64.4545455,95.4444444 67.6363636,92.3333333 71.5,92.3333333 Z" id="Shape" fill="#F5A623"></path>
                <path d="M54,99.3026316 C54,92.5921053 48.3181818,87 41.5,87 C34.6818182,87 29,92.5921053 29,99.3026316 L29,121 L34.4545455,121 L34.4545455,99.3026316 C34.4545455,95.5 37.6363636,92.3684211 41.5,92.3684211 C45.3636364,92.3684211 48.5454545,95.5 48.5454545,99.3026316 C48.5454545,103.105263 45.3636364,106.236842 41.5,106.236842 L39.9090909,106.236842 C37.6363636,106.236842 36.0454545,108.026316 36.0454545,110.039474 C36.0454545,111.157895 36.5,112.052632 37.1818182,112.723684 L42.8636364,118.315789 C44.4545455,119.881579 46.7272727,121 49.2272727,121 L53.5454545,121 L53.5454545,115.631579 L49.2272727,115.631579 C48.3181818,115.631579 47.4090909,115.184211 46.7272727,114.513158 L43.3181818,111.157895 C49.4545455,110.710526 54,105.565789 54,99.3026316 Z" id="Shape" fill="#F5A623"></path>
                <path d="M142.611324,88 L133.898046,88 C131.605078,88 130,89.8133333 130,91.8533333 L130,118.146667 C130,120.413333 131.834374,122 133.898046,122 L142.382027,122 C149.260931,122 154.993351,116.56 154.993351,109.76 L154.993351,100.24 C155.222648,93.44 149.490228,88 142.611324,88 Z M149.719525,109.76 C149.719525,113.613333 146.509369,116.56 142.611324,116.56 L135.503123,116.56 L135.503123,93.2133333 L142.611324,93.2133333 C146.509369,93.2133333 149.719525,96.3866667 149.719525,100.24 L149.719525,109.76 Z" id="Shape" fill="#F5A623"></path>
                <path d="M107.545455,102.604027 C106.863636,102.375839 106.409091,102.375839 105.727273,102.375839 L95.2727273,102.375839 C94.3636364,102.375839 93.4545455,101.463087 93.4545455,100.550336 L93.4545455,88 L88,88 L88,122 L93.4545455,122 L93.4545455,107.624161 C94.1363636,107.852349 94.5909091,107.852349 95.2727273,107.852349 L105.727273,107.852349 C106.636364,107.852349 107.318182,108.536913 107.545455,109.449664 L107.545455,122 L113,122 L113,88 L107.545455,88 L107.545455,102.604027 Z" id="Shape" fill="#F5A623"></path>
                <path d="M121,87 C119.888889,87 119,87.4503311 118.333333,88.1258278 L115,91.5033113 L118.111111,96.0066225 L119.666667,94.4304636 L119.666667,121 L125,121 L125,90.8278146 C124.777778,88.5761589 123.222222,87 121,87 Z" id="Shape" fill="#F5A623"></path>
            </g>
        </g>
    </g>
</svg>