<svg width="28px" height="28px" viewBox="0 0 28 28" version="1.1" xmlns="http://www.w3.org/2000/svg" xmlns:xlink="http://www.w3.org/1999/xlink">
    <!-- Generator: Sketch 49 (51002) - http://www.bohemiancoding.com/sketch -->
    <desc>Created with Sketch.</desc>
    <defs>
        <path d="M29.7713402,11.3052843 C28.5641915,9.23705782 26.9266118,7.59947811 24.8583853,6.39232943 C22.7897273,5.18518075 20.5314207,4.58171429 18.0819553,4.58171429 C15.6327057,4.58171429 13.3737518,5.18518075 11.3055253,6.39232943 C9.23708309,7.59926235 7.59950338,9.23684206 6.39235471,11.3052843 C5.18499027,13.3737266 4.58152381,15.6326804 4.58152381,18.0817143 C4.58152381,20.5309639 5.18520603,22.7894863 6.39213895,24.8581443 C7.59928763,26.926155 9.23686734,28.5639505 11.3053096,29.7710991 C13.3737518,30.9782478 15.6324899,31.5817143 18.0817396,31.5817143 C20.5309892,31.5817143 22.789943,30.9782478 24.8581695,29.7710991 C26.926396,28.5641662 28.5639757,26.9263708 29.7711244,24.8581443 C30.9780573,22.789702 31.5815238,20.5307482 31.5815238,18.0817143 C31.5815238,15.6324646 30.9780573,13.3735108 29.7713402,11.3052843 L29.7713402,11.3052843 Z M20.3320632,26.5192413 C20.3320632,26.683215 20.2789875,26.8180618 20.1736991,26.9233502 C20.0686265,27.0286386 19.9337796,27.0812828 19.7698059,27.0812828 L16.3945362,27.0812828 C16.2305625,27.0812828 16.0957157,27.0286386 15.9902115,26.9233502 C15.8847074,26.8180618 15.8320632,26.683215 15.8320632,26.5192413 L15.8320632,23.1439716 C15.8320632,22.9799978 15.8847074,22.845151 15.9902115,22.7396469 C16.0957157,22.6345742 16.2305625,22.58193 16.3945362,22.58193 L19.7698059,22.58193 C19.9337796,22.58193 20.0686265,22.6345742 20.1736991,22.7396469 C20.2789875,22.845151 20.3320632,22.9799978 20.3320632,23.1439716 L20.3320632,26.5192413 L20.3320632,26.5192413 Z M24.612209,16.1304269 C24.4657114,16.5640943 24.3017376,16.9187954 24.120072,17.1940986 C23.9384064,17.4694019 23.6775587,17.7507463 23.337529,18.0377003 C22.9981465,18.3248701 22.7284529,18.530053 22.5288796,18.653249 C22.3299536,18.7760136 22.0425681,18.9432236 21.6678018,19.1540162 C21.281169,19.3766752 20.9620675,19.6666498 20.7102815,20.0241557 C20.4582798,20.3814458 20.332279,20.6716361 20.332279,20.8940794 C20.332279,21.0582689 20.2792032,21.1931157 20.1739149,21.2984041 C20.0688422,21.4039083 19.9339954,21.4565525 19.7700217,21.4565525 L16.394752,21.4565525 C16.2307783,21.4565525 16.0959314,21.4039083 15.9904273,21.2984041 C15.8849231,21.1931157 15.832279,21.0582689 15.832279,20.8940794 L15.832279,20.2610546 C15.832279,19.4759225 16.1397297,18.740414 16.7550627,18.0549607 C17.3703957,17.3692916 18.0472188,16.8624833 18.7855321,16.5343201 C19.3477893,16.2767088 19.7462886,16.0128405 19.9805985,15.7433627 C20.2153398,15.4738848 20.3324947,15.1161632 20.3324947,14.6710608 C20.3324947,14.2842122 20.1124247,13.9385729 19.672932,13.6337112 C19.2334392,13.3290653 18.7328879,13.1767423 18.1701991,13.1767423 C17.5606915,13.1767423 17.0569038,13.3174145 16.6584045,13.5987589 C16.2715559,13.8798876 15.7677682,14.4190591 15.1466099,15.2158419 C15.0411057,15.3565141 14.8946081,15.427066 14.7071171,15.427066 C14.5664449,15.427066 14.4551154,15.3918979 14.3731285,15.3217776 L12.0529003,13.5640224 C11.7834225,13.3530141 11.7366036,13.1070535 11.9122281,12.8257091 C13.412372,10.3296406 15.5861026,9.08149853 18.4336358,9.08149853 C19.4535092,9.08149853 20.4496496,9.32184949 21.4222727,9.80233566 C22.3948958,10.2826061 23.20635,10.9624498 23.8570668,11.8414352 C24.5069206,12.720205 24.8324947,13.6753519 24.8324947,14.7066603 C24.8318474,15.2223146 24.758275,15.6967596 24.612209,16.1304269 L24.612209,16.1304269 Z" id="path-1"></path>
    </defs>
    <g id="Style-Guides" stroke="none" stroke-width="1" fill="none" fill-rule="evenodd">
        <g id="ORCHID---Icons" transform="translate(-81.000000, -879.000000)">
            <g id="Icons/?" transform="translate(77.000000, 875.000000)">
                <mask id="mask-2" fill="white">
                    <use xlink:href="#path-1"></use>
                </mask>
                <use id="Mask" fill="#FFFFFF" fill-rule="evenodd" xlink:href="#path-1"></use>
                <g id="Colors/Grey/90%" mask="url(#mask-2)" fill="#757575" fill-rule="evenodd">
                    <rect id="Rectangle-2-Copy-6" x="0" y="0" width="36" height="36"></rect>
                </g>
            </g>
        </g>
    </g>
</svg>
