<?xml version="1.0" encoding="UTF-8"?>
<svg width="30px" height="30px" viewBox="0 0 30 30" version="1.1" xmlns="http://www.w3.org/2000/svg" xmlns:xlink="http://www.w3.org/1999/xlink">
    <!-- Generator: Sketch 49.2 (51160) - http://www.bohemiancoding.com/sketch -->
    <title>Icons/Token</title>
    <desc>Created with Sketch.</desc>
    <defs>
        <path d="M14.920994,12.7592802 C13.5485861,12.6439075 11.9047129,12.1839246 11.8745501,10.6410968 C11.8594687,10.0039075 12.1761782,9.54015424 12.4476435,9.26265638 C13.0282776,8.66920308 13.9557841,8.3291174 14.9888603,8.3291174 C16.9343616,8.3291174 17.8166238,9.41497858 17.8166238,10.4239246 C17.8166238,11.0490488 18.3218509,11.55503 18.9477292,11.55503 C19.5736075,11.55503 20.0788346,11.0490488 20.0788346,10.4239246 C20.0788346,8.51989717 18.7215081,6.59626392 16.1275064,6.15965724 L16.1275064,5.1311054 C16.1275064,4.50673522 15.6222793,4 14.996401,4 C14.3705227,4 13.8652956,4.50673522 13.8652956,5.1311054 L13.8652956,6.16493573 C12.6738646,6.36928877 11.6030848,6.89487575 10.8339332,7.6798629 C10.0195373,8.51009426 9.58971722,9.57861183 9.61233933,10.6893573 C9.66512425,13.132545 11.5804627,14.7492716 14.7701799,15.0162125 C16.8891174,15.1240446 18.3218509,16.1933162 18.2539846,17.6170009 C18.193659,18.9260668 16.8514139,19.8769494 15.0718081,19.8769494 C13.3374464,19.8769494 11.5955441,19.120617 11.5955441,17.4307455 C11.5955441,16.8056213 11.0903171,16.2996401 10.4644387,16.2996401 C9.83856041,16.2996401 9.33333333,16.8056213 9.33333333,17.4307455 C9.33333333,19.8603599 11.143102,21.6475064 13.8652956,22.0516881 L13.8652956,23.2921337 C13.8652956,23.9172579 14.3705227,24.4232391 14.996401,24.4232391 C15.6222793,24.4232391 16.1275064,23.9172579 16.1275064,23.2921337 L16.1275064,22.0592288 C18.623479,21.6806855 20.4030848,19.9742245 20.5086547,17.7225707 C20.6217652,15.4038046 18.7215081,12.9530763 14.920994,12.7592802 M14.6666667,26.6666667 C8.05025329,26.6666667 2.66666667,21.2842118 2.66666667,14.6673962 C2.66666667,8.04985105 8.05025329,2.66666667 14.6666667,2.66666667 C21.28308,2.66666667 26.6666667,8.04985105 26.6666667,14.6673962 C26.6666667,21.2842118 21.28308,26.6666667 14.6666667,26.6666667 Z M14.6666667,0 C6.57549272,0 0,6.58001714 0,14.6666667 C0,22.7533162 6.57549272,29.3318252 14.6666667,29.3318252 C22.7502999,29.3318252 29.3333333,22.7533162 29.3333333,14.6666667 C29.3333333,6.58001714 22.7502999,0 14.6666667,0 Z" id="path-1"></path>
    </defs>
    <g id="00---First-Launch" stroke="none" stroke-width="1" fill="none" fill-rule="evenodd">
        <g transform="translate(-472.000000, -153.000000)" id="Intro-3">
            <g transform="translate(34.000000, 152.000000)">
                <g id="Intro-2" transform="translate(437.000000, 0.000000)">
                    <g id="Group">
                        <g id="Icons/Token">
                            <g transform="translate(1.333333, 1.333333)">
                                <mask id="mask-2" fill="white">
                                    <use xlink:href="#path-1"></use>
                                </mask>
                                <use id="Mask" fill="#1A1919" xlink:href="#path-1"></use>
                                <g id="Colors/Grey/90%" mask="url(#mask-2)" fill="#212121">
                                    <g transform="translate(-1.333333, -1.333333)" id="Rectangle-2-Copy-6">
                                        <rect x="0" y="0" width="32" height="32"></rect>
                                    </g>
                                </g>
                            </g>
                        </g>
                    </g>
                </g>
            </g>
        </g>
    </g>
</svg>