<?xml version="1.0" encoding="UTF-8"?>
<svg width="30px" height="22px" viewBox="0 0 30 22" version="1.1" xmlns="http://www.w3.org/2000/svg" xmlns:xlink="http://www.w3.org/1999/xlink">
    <!-- Generator: Sketch 49.2 (51160) - http://www.bohemiancoding.com/sketch -->
    <title>Icons/Wifi</title>
    <desc>Created with Sketch.</desc>
    <defs>
        <path d="M14.6637859,21.3888889 C15.676109,21.3888889 16.4967591,20.5680776 16.4967591,19.5555556 C16.4967591,18.5430335 15.676109,17.7222222 14.6637859,17.7222222 C13.6514627,17.7222222 12.8308126,18.5430335 12.8308126,19.5555556 C12.8308126,20.5680776 13.6514627,21.3888889 14.6637859,21.3888889 Z M6.62121398,11.3912754 C11.3153154,7.61664427 18.1319582,7.61664427 22.8260597,11.3912754 C23.3633032,11.8232848 24.1615829,11.7530371 24.6090673,11.2343727 C25.0565518,10.7157084 24.9837877,9.94503502 24.4465442,9.51302562 C18.8136225,4.98346827 10.6336512,4.98346827 5.00072942,9.51302562 C4.46348593,9.94503502 4.39072187,10.7157084 4.83820632,11.2343727 C5.28569078,11.7530371 6.0839705,11.8232848 6.62121398,11.3912754 Z M2.10355937,7.02979388 C9.2818763,0.915994634 20.051457,0.915994634 27.229774,7.02979388 C27.7540929,7.47635828 28.5541171,7.42802479 29.0166779,6.921838 C29.4792387,6.41565121 29.4291739,5.64329376 28.9048549,5.19672936 C20.7694291,-1.73224312 8.56390425,-1.73224312 0.428478401,5.19672936 C-0.0958405573,5.64329376 -0.145905406,6.41565121 0.316655432,6.921838 C0.77921627,7.42802479 1.57924042,7.47635828 2.10355937,7.02979388 Z M11.0005313,15.7996284 C13.1958097,14.2939252 16.1375236,14.2939252 18.332802,15.7996284 C18.9027917,16.1905744 19.6931366,16.0614101 20.0980868,15.511132 C20.5030369,14.9608538 20.3692459,14.1978409 19.7992561,13.8068949 C16.7258664,11.6989105 12.607467,11.6989105 9.5340772,13.8068949 C8.96408747,14.1978409 8.83029643,14.9608538 9.23524656,15.511132 C9.64019669,16.0614101 10.4305416,16.1905744 11.0005313,15.7996284 Z" id="path-1"></path>
    </defs>
    <g id="00---First-Launch" stroke="none" stroke-width="1" fill="none" fill-rule="evenodd">
        <g transform="translate(-472.000000, -158.000000)" id="Intro-2">
            <g transform="translate(34.000000, 153.000000)">
                <g id="Intro-1" transform="translate(437.000000, 0.000000)">
                    <g id="Group-2">
                        <g id="Icons/Wifi">
                            <g id="wifi" transform="translate(1.333333, 5.333333)">
                                <mask id="mask-2" fill="white">
                                    <use xlink:href="#path-1"></use>
                                </mask>
                                <use id="Shape" fill="#000000" fill-rule="nonzero" xlink:href="#path-1"></use>
                                <g id="Colors/Grey/90%" mask="url(#mask-2)" fill="#212121">
                                    <g transform="translate(-1.333333, -5.333333)" id="Rectangle-2-Copy-6">
                                        <rect x="0" y="0" width="32" height="32"></rect>
                                    </g>
                                </g>
                            </g>
                        </g>
                    </g>
                </g>
            </g>
        </g>
    </g>
</svg>