<?xml version="1.0" encoding="UTF-8"?>
<svg width="24px" height="22px" viewBox="0 0 24 22" version="1.1" xmlns="http://www.w3.org/2000/svg" xmlns:xlink="http://www.w3.org/1999/xlink">
    <!-- Generator: Sketch 49.2 (51160) - http://www.bohemiancoding.com/sketch -->
    <title>Icons/Wallet</title>
    <desc>Created with Sketch.</desc>
    <defs>
        <path d="M0,11.1646746 L0,7.54363492 L0,3.83333333 L0.00114285714,3.83333333 C0.0304761905,2.2682381 0.644952381,0 2.97219048,0 L20.8859048,0 C23.1925714,0 23.8268571,2.2682381 23.8571429,3.83333333 L23.8582857,3.83333333 L23.8582857,7.54363492 L23.8582857,11.0755952 L24,11.0755952 L24,18.1895317 C24,19.8734603 22.7601905,21.2383095 21.2308571,21.2383095 L2.76933333,21.2383095 C1.23961905,21.2383095 0,19.8734603 0,18.1895317 L0,11.1646746 Z M1.148,11.0755952 L6.46152381,11.0755952 C7.59314286,11.0755952 8.62704762,11.7798333 9.13390476,12.8936905 L9.32857143,13.3226587 C9.83447619,14.4363333 10.868381,15.140754 12,15.140754 C13.131619,15.140754 14.1655238,14.4363333 14.6721905,13.3226587 L14.8670476,12.8936905 C15.3729524,11.7798333 16.4068571,11.0755952 17.5384762,11.0755952 L22.5142857,11.0755952 L22.5142857,10.9699048 C22.4198095,9.7175 21.7093333,8.76190476 20.8859048,8.76190476 L2.97219048,8.76190476 C2.12609524,8.76190476 1.22438095,9.77171429 1.148,11.0755952 Z M1.14285714,4.14310317 C1.58304762,3.73257143 2.17790476,3.46825397 2.97219048,3.46825397 L20.8859048,3.46825397 C21.564381,3.46825397 22.0980952,3.66448413 22.5142857,3.98137302 L22.5142857,3.83333333 L22.5230476,3.83333333 C22.4815238,2.50097619 21.7449524,1.46031746 20.8859048,1.46031746 L2.97219048,1.46031746 C2.08780952,1.46031746 1.14285714,2.56322222 1.14285714,3.95234921 L1.14285714,4.14310317 Z M22.5142857,7.54363492 L22.5142857,7.13657143 C22.4198095,5.88416667 21.7093333,4.92857143 20.8859048,4.92857143 L2.97219048,4.92857143 C2.08780952,4.92857143 1.14285714,6.03147619 1.14285714,7.42060317 L1.14285714,7.97643651 C1.58304762,7.56590476 2.17790476,7.3015873 2.97219048,7.3015873 L20.8859048,7.3015873 C21.564381,7.3015873 22.0980952,7.49781746 22.5142857,7.81470635 L22.5142857,7.54363492 Z" id="path-1"></path>
    </defs>
    <g id="Symbols" stroke="none" stroke-width="1" fill="none" fill-rule="evenodd">
        <g id="Side-menu/Navigation-Dashboard" transform="translate(-30.000000, -253.000000)">
            <g id="Side-menu-/-nav-menu" transform="translate(0.000000, 168.000000)">
                <g id="wallet" transform="translate(30.000000, 84.000000)">
                    <g id="Icons/Wallet" transform="translate(0.000000, 0.761905)">
                        <g transform="translate(0.000000, 0.958333)">
                            <mask id="mask-2" fill="white">
                                <use xlink:href="#path-1"></use>
                            </mask>
                            <use id="Mask" fill="#F8F4FC" xlink:href="#path-1"></use>
                            <g id="Colors/Primary/Nav/Nav-Names" mask="url(#mask-2)" fill="#AE9DCC">
                                <g transform="translate(0.000000, -0.958333)" id="Rectangle-2-Copy-2">
                                    <rect x="0" y="0" width="24" height="23"></rect>
                                </g>
                            </g>
                        </g>
                    </g>
                </g>
            </g>
        </g>
    </g>
</svg>