<?xml version="1.0" encoding="UTF-8"?>
<svg width="10px" height="10px" viewBox="0 0 10 10" version="1.1" xmlns="http://www.w3.org/2000/svg" xmlns:xlink="http://www.w3.org/1999/xlink">
    <!-- Generator: Sketch 50.2 (55047) - http://www.bohemiancoding.com/sketch -->
    <title>Icons/Check-Thin</title>
    <desc>Created with Sketch.</desc>
    <defs>
        <path d="M5.60947571,4.66666667 L9.13807119,8.19526215 C9.39842072,8.45561167 9.39842072,8.87772166 9.13807119,9.13807119 C8.87772166,9.39842072 8.45561167,9.39842072 8.19526215,9.13807119 L4.66666667,5.60947571 L1.13807119,9.13807119 C0.87772166,9.39842072 0.455611674,9.39842072 0.195262146,9.13807119 C-0.065087382,8.87772166 -0.065087382,8.45561167 0.195262146,8.19526215 L3.72385763,4.66666667 L0.195262146,1.13807119 C-0.065087382,0.87772166 -0.065087382,0.455611674 0.195262146,0.195262146 C0.455611674,-0.065087382 0.87772166,-0.065087382 1.13807119,0.195262146 L4.66666667,3.72385763 L8.19526215,0.195262146 C8.45561167,-0.065087382 8.87772166,-0.065087382 9.13807119,0.195262146 C9.39842072,0.455611674 9.39842072,0.87772166 9.13807119,1.13807119 L5.60947571,4.66666667 Z" id="path-1"></path>
    </defs>
    <g id="Symbols" stroke="none" stroke-width="1" fill="none" fill-rule="evenodd">
        <g id="Cards/Disconnection-status" transform="translate(-69.000000, -186.000000)">
            <g id="Group">
                <g transform="translate(66.000000, 182.000000)">
                    <g id="Icons/close-X" transform="translate(0.000000, 1.000000)">
                        <g id="x" transform="translate(3.333333, 3.333333)">
                            <mask id="mask-2" fill="white">
                                <use xlink:href="#path-1"></use>
                            </mask>
                            <use id="Combined-Shape" fill="#000000" fill-rule="nonzero" xlink:href="#path-1"></use>
                            <g id="Colors/Status/Orange_Error" mask="url(#mask-2)">
                                <g transform="translate(-3.333333, -3.333333)" id="Colors/Orange-Error">
                                    <g>
                                        <rect id="Rectangle-2-Copy-3" fill="#E3601F" x="0" y="0" width="16" height="16"></rect>
                                    </g>
                                </g>
                            </g>
                        </g>
                    </g>
                </g>
            </g>
        </g>
    </g>
</svg>